<?xml version="1.0" encoding="UTF-8"?>
<svg id="_Слой_2" data-name="Слой 2" xmlns="http://www.w3.org/2000/svg" viewBox="0 0 3463.68 2995.7">
  <defs>
    <style>
      .cls-1 {
        fill: #787922;
      }
    </style>
  </defs>
  <g id="_Слой_1-2" data-name="Слой 1">
    <g>
      <g>
        <path class="cls-1" d="M775.59,2015.48c-18.66-183.18-119.61-360.78-306.5-360.78s-327.05,177.59-327.05,424.23c0,265.48,162.58,435.53,366.31,435.53,160.7,0,299.03-97.24,377.49-327.11l28.02,14.95c-56.04,177.59-185.01,386.91-442.89,386.91S0,2376.14,0,2099.48s213.03-482.09,463.49-482.09,392.44,158.87,467.2,398.09h-155.11Z"/>
        <path class="cls-1" d="M945.95,1636.11h452.25v37.32c-132.68,0-166.35,0-108.37,145.75l242.93,592.46,227.98-562.56c72.93-175.65,39.26-175.65-93.42-175.65v-37.32h362.54v37.32c-106.48,0-149.51,0-222.39,181.24l-299.03,734.56h-35.49l-308.39-749.51c-69.1-166.29-110.25-166.29-218.62-166.29v-37.32Z"/>
        <path class="cls-1" d="M2906.58,2187.36l28.02,14.95c-56.04,177.59-185.01,386.91-442.89,386.91s-470.97-213.09-470.97-489.75,213.03-482.09,463.49-482.09,392.44,158.87,467.2,398.09h-784.95c-1.82,20.54-3.71,41.09-3.71,63.45,0,265.48,162.58,435.53,366.31,435.53,160.7,0,299.03-97.24,377.49-327.11ZM2172.08,1978.04h618.66c-28.02-170.06-127.09-323.34-300.91-323.34-156.99,0-285.96,130.92-317.75,323.34Z"/>
      </g>
      <circle class="cls-1" cx="3368.34" cy="2103.3" r="95.34"/>
      <g>
        <path class="cls-1" d="M2845.73,982.19l69.29-105.45c20.23-15.43,42.23-21.5,67.27-14.67,10.62-13.15-24.02-21.24-33.13-22.25-44.25-4.8-92.81,6.32-136.81-6.83,7.33-26.55,17.45-58.67,19.73-85.98.25-4.8,2.53-16.69-5.31-16.69-10.87,5.56-17.7,21.24-31.86,12.9-3.03-4.8-3.03-10.37-2.53-15.93,1.26-10.37,13.91-22.76,8.85-29.33-3.03-4.05-38.94-22-46.02-25.03-28.83-12.9-63.47-25.29-94.32-13.66,4.8-13.4,12.39-24.02,16.94-37.43,8.85-25.54,12.39-54.62,18.71-80.92-2.78.25-4.8-1.01-7.08,1.52-5.06,6.58-9.1,20.23-14.41,27.31-32.62,45.77-94.58,36.41-131.24,73.84-3.79-7.33-18.97-26.05-15.68-33.38,1.26-2.78,20.48-22,25.29-28.32,27.82-37.17,42.48-82.44,89.01-100.39,12.64-5.06,29.59-5.06,37.93-15.43,3.03-15.17-35.15-7.84-42.48-8.35-46.53-3.03-84.97-13.4-134.28-10.37-53.86,3.54-127.45,31.1-161.34,74.85-24.78,31.61-24.78,82.18-60.18,103.43-7.33-9.86,40.71-151.73,45.52-176,6.83-34.39,8.85-52.6-6.07-84.97-16.44-35.66-48.55-63.47-50.83-104.44l-7.33,5.06c-5.31,33.63-18.71,67.52-32.87,98.37-12.9,27.82-34.14,57.4-39.7,87.5-9.1,50.58,5.56,97.11,24.28,143.38l-32.87-11.63c-11.63-24.28-19.73-52.35-31.86-76.12-7.59-14.92-18.71-34.64-27.06-48.8-32.87-56.65-99.38-105.96-160.07-129.73-7.08-2.78-23.26-9.1-30.09-10.12-2.78-.25-4.55.25-3.29,3.29,2.78,6.58,20.48,13.4,26.55,18.21,59.68,45.26,11.38,152.99,34.9,216.97,2.53,6.58,21.49,37.17,18.71,40.21-7.33-4.55-37.68-3.29-39.7-10.37,4.55-27.06-3.79-54.87-4.8-81.93-1.26-32.37,6.32-62.71,4.3-94.58l-5.31-2.53c-12.39,26.05-20.48,53.61-39.2,76.87-5.06,6.32-30.34,31.1-36.92,31.61-2.53.25-4.8-1.52-7.59-1.52-.76-3.79,1.77-4.55,3.54-6.83,6.83-8.85,17.45-17.45,23.77-27.31,17.2-27.56,35.15-92.81-.25-112.03-26.05-13.91-40.97,6.07-67.26.25-7.33-18.46.51-42.99-27.31-41.22-39.45,2.53-51.08,53.86-74.85,77.89-9.1-29.08-27.56-52.85-42.74-78.64-11.13-18.71-29.33-65.24-52.6-70.05-31.36,3.54-64.74-7.33-83.45,24.53-7.08,11.88-5.56,23.52-9.61,35.15-7.33,20.74-45.52,23.01-61.2,37.68l-2.28-101.4-5.56-9.86c-10.37,22-17.2,48.3-32.37,67.77-17.2,22-42.74,36.67-63.47,54.37-8.09-6.58-16.94-12.14-27.56-13.15-4.3-27.56,11.88-75.1-22-86.23-34.9-11.63-52.6,23.01-69.79,45.01-8.6,11.13-24.53,22-26.55,38.18-1.26,9.36,5.56,20.23,1.01,29.84l-20.74-34.9c5.82-15.17,14.16-30.6,16.94-46.78,8.85-53.36-13.4-85.47-29.08-132.76-6.58-19.73-10.37-49.31-17.7-66.76-1.26-2.78-2.78-4.3-5.06-6.07-10.62,8.6-13.91,22.25-18.97,34.14l-4.55.25c-4.05-9.61-8.85-18.97-14.67-27.56-4.55-7.33-25.54-31.86-26.8-35.91-1.26-4.8,2.28-21.75,1.52-30.09-2.02-26.8-13.15-40.46-39.45-26.05-12.64,6.83-9.36,14.41-12.39,17.7-1.01,1.26-5.31,0-8.09,4.3-2.28,3.54-2.78,12.9-2.53,17.45,14.16,46.53,14.41,97.86,40.21,140.35l-13.4-1.01c-6.32,6.83,23.77,58.41,30.09,66.51,7.59,9.61,36.16,34.64,38.94,43.75.76,3.03-.25,4.3-3.29,3.29-4.55-1.52-14.92-5.56-19.22-7.59-4.55-2.28-19.22-16.94-23.26-10.37-6.32,10.62-.76,57.66,3.29,70.55,18.46,57.4,64.23,47.54,109.24,62.21,12.14,3.79,41.22,34.64,50.32,45.52,1.77,2.28,9.36,11.38,7.59,13.4-12.39,6.32-14.41-2.28-23.52-6.32-18.46-8.09-84.21-25.29-102.16-22.51-19.22,3.03-55.38,33.13-67.27,48.8-27.56-9.36-42.48-36.16-74.35-34.39-13.4-30.85-40.71-67.01-44.25-100.64-1.77-15.43-2.28-45.77,4.55-59.43,2.28-4.3,13.4-15.43,10.62-19.22-6.83-2.78-8.09-.76-13.4,3.29-23.52,17.95-64.74,64.23-75.61,91.29-10.87,26.3-16.44,57.91-13.4,85.72-2.53.51-4.3-.25-6.57-1.01-12.9-5.56-32.88-22-48.3-29.84-43.75-21.75-94.07-29.08-124.41-69.54-10.62-14.41-16.94-34.39-31.1-44.25-10.12,2.02,6.83,37.93,8.85,44.51,3.54,12.64,8.85,29.59,11.13,42.23,3.29,17.7,1.52,37.93,8.09,54.12,12.39,30.6,57.4,28.83,50.83,70.8-33.89-13.15-75.1,4.05-101.66,26.3-4.8.76-7.84-9.61-10.87-4.05-3.54,6.58,3.03,13.4.25,17.7-1.27,1.77-15.43,12.39-19.22,16.69-11.13,12.39-33.63,38.44-37.93,53.61-5.06,17.95-1.52,40.46,0,58.92l-40.21-36.41c-57.4-29.84-123.66-19.73-168.92,26.8-12.14,12.64-11.13,20.23-16.94,34.14-9.1,20.99-26.8,3.29-40.21,17.7-11.13,12.14-5.82,22.25-4.3,35.91-52.35-11.13-105.2-7.33-157.04-23.52-30.85-9.36-34.64-26.8-56.9-38.94-3.79-2.02-9.36-6.32-12.39-1.01,7.59,13.65,19.98,23.26,28.58,36.16,20.23,29.59,26.55,67.77,55.13,91.79,11.89,10.11,28.32,16.18,38.94,27.82,10.62,11.38,16.94,28.32,25.79,41.22,16.44,23.26,35.15,45.52,58.92,61.45.25,5.06-22.76,3.03-27.56,3.54-58.41,7.84-70.55,50.32-97.61,91.79-21.49,32.87-50.58,63.22-71.82,95.33-1.77,2.53-3.79,5.31-3.54,8.6,6.58,9.1,48.8-20.74,58.67-24.78,59.17-24.28,116.07,9.36,182.58-31.1,6.07-3.79,23.77-19.22,27.31-19.72,4.05-.76,2.78.51,3.79,2.78,1.26,3.03,7.08,18.97,7.59,21.49.5,3.04-.51,3.04-2.78,4.55-9.36,5.82-24.02,7.33-35.4,15.68-48.55,35.91-20.23,94.58-23.52,143.63-.76,13.65-4.55,39.2-7.59,52.6-3.54,15.68-13.91,28.57-14.67,44.5,3.03,0,4.55.76,6.83-1.52,3.03-2.78,12.9-27.31,18.21-34.9,22.76-33.13,59.43-56.9,84.21-87.24,19.47-23.77,10.62-40.21,15.68-68.02,1.77-1.77,22.25,17.2,26.05,19.72,37.68,23.77,74.09,15.93,110.51-4.55,42.23-23.52,71.56-58.92,101.91-95.33v43.5c0,11.63,18.21,50.07,26.55,60.18,17.95,21.24,30.6,21.24,57.15,25.29,3.03,4.3-3.03,25.54-3.54,32.62-1.52,25.79,11.13,55.38,20.48,79.66,2.28,5.31,14.41,38.94,16.44,39.7l7.33-.51c5.31-35.91,29.84-60.18,60.44-76.62,18.97-10.37,49.06-17.95,62.46-35.65,11.88-15.93,16.44-36.92,22.5-55.38.76-2.53.51-5.56,4.05-5.82l33.38,105.96h7.08c4.05-14.67,16.18-27.06,27.56-36.92,5.06-4.3,36.16-27.06,39.95-27.06,11.38,16.94,24.28,32.62,35.66,49.56,9.61,14.16,14.41,34.14,31.36,41.98,19.73-3.79,39.95-5.56,60.18-4.3,9.1.51,19.72,4.05,28.83,4.55,38.94,1.77,110.51-22,135.03-52.6l33.38-54.37c-1.01,7.08,1.77,13.91,2.28,20.99,2.28,36.67-4.8,83.7-.25,118.35,1.26,8.6,5.82,13.91,11.88,4.8,19.22-30.09,39.7-63.47,66.25-87.5,18.97-16.94,33.89-29.08,52.6-47.79,1.77-1.77,2.02-3.03,5.31-2.28,11.38,45.01,49.31,68.53,68.02,111.52,3.03,7.08,19.22,60.18,22.25,60.18,6.57,0,10.62-18.21,12.39-23.52,12.39-40.71,6.32-56.39,4.3-95.59-1.77-32.11,6.07-44,12.39-72.58,1.52-6.32-.76-13.65,4.3-17.95,22.5,20.48,51.33,37.68,81.17,43.49,12.14,2.53,30.85,0,41.22,8.09,7.84,6.07,17.95,32.87,28.07,43.24,30.85,31.86,97.36,33.13,140.35,51.33,6.83,2.78,11.38,9.61,20.23,7.59,3.54-3.54-24.53-36.41-28.32-41.98-26.3-38.69-49.82-79.4-70.3-121.38l-41.98-95.08c4.05-.76,5.56,2.02,7.84,4.55,21.49,27.31,26.8,63.98,64.23,80.67,11.13,4.8,37.17,6.07,43.75,11.88,4.05,3.29,13.66,25.79,18.46,32.88,13.65,20.48,34.9,33.63,54.62,47.79,91.79,66.25,152.74,70.81,264.76,62.97,3.79-.25,24.53-3.54,25.54-4.55,6.83-7.33-21.24-9.1-23.01-9.36-49.56-13.15-90.28-76.12-108.48-120.87,21.24-2.02,30.85,29.33,52.35,29.59,11.38.25,35.91-12.14,42.23-22,4.05-6.32,16.18-27.31,19.47-33.89,6.07-12.39.5-24.78,21.49-17.95,35.65,43.75,77.13,77.88,88.76,136.05,5.56,26.8,9.1,54.11-3.29,79.4l7.33,5.82c5.56,0,18.97-25.03,22.25-31.1,28.32-51.08,53.86-114.81,43.5-173.73l37.93,23.27c51.84,19.98,103.17,21.49,149.96,54.87,6.32,4.55,29.08,27.82,33.88,26.55,13.66-4.05-11.63-24.53-14.41-28.07-18.46-23.26-20.48-47.03-29.08-74.6,38.94,6.83,74.85,17.45,110.51-6.58,18.71-12.64,24.02-28.32,35.91-46.53,14.41,2.02,29.08,6.07,44,4.05,14.92-2.28,36.41-14.92,52.35-18.97,37.17-9.36,100.14-5.31,136.05,9.1,6.07,2.28,40.21,25.54,42.48,15.17-20.23-87.24-93.56-148.94-182.83-156.78ZM2939.29,850.69l-32.37,19.98c-30.6,38.94-82.44,140.35-128.97,156.28-5.82,1.77-40.46,10.11-43.24,8.34-6.58-16.18-16.69-30.85-29.33-42.99,27.56-22,54.11-48.55,82.69-69.04,22-15.68,48.55-26.05,68.78-43.49-6.32-.76-11.13,0-17.2,1.77-11.89,3.54-57.4,30.6-70.3,38.69-27.31,16.94-50.83,38.69-76.87,57.15-4.05.76-35.91-22.51-43.5-26.8-14.67-8.09-30.85-15.43-46.28-21.75-.51-4.3,4.55-1.77,6.83-1.26,30.6,5.56,62.97,14.41,94.07,9.61,50.58-8.09,90.53-47.54,105.7-95.59,42.23,13.4,86.23,8.35,129.98,9.1ZM2550.37,656.99c24.28-31.36,66-29.08,97.61-49.56l26.05-17.45c-4.3,10.87-5.56,22.76-9.86,33.38-2.78,7.08-17.95,38.69-21.5,43.24-6.32,7.84-26.55,17.95-35.4,27.06-18.21,18.97-28.32,45.26-44.51,65.75,5.31-49.31,27.56-90.53,64.48-122.64-17.45,1.52-33.63,22-43.24,35.91-10.88,16.18-18.71,34.39-23.52,53.36-3.79.51-2.02-3.03-2.28-5.56-.25-6.58.51-13.15-.25-19.73-1.26-9.61-10.12-37.93-7.59-43.75ZM2571.36,764.72c20.48-40.21,44.5-75.61,88-92.55,37.68-14.92,60.69-4.55,95.08,12.39,12.9,6.58,25.29,15.43,37.68,22.51-22.25,24.28-8.85,62.21,26.8,45.77-7.33,66-36.67,155.52-111.01,170.69-46.78,9.61-100.64-12.14-147.43-16.94-5.31-4.3,12.9-8.09,15.17-8.35,50.32-6.58,78.39,2.02,124.92-28.83,5.82-3.79,35.91-25.79,31.36-32.11-29.33,12.39-48.55,34.39-80.41,42.99-30.6,8.35-62.21,4.55-91.04,15.17-1.52-8.09,6.32-10.62,9.86-15.68,2.53-3.54,3.54-10.87,5.56-12.39,3.29-2.28,11.38-.51,16.44-1.52,20.74-4.55,45.27-40.46,59.43-56.39-2.28-3.54-4.8,1.01-6.58,2.28-13.91,9.86-39.7,39.45-48.3,43.24-3.54,1.52-16.69,6.58-16.44-.76,1.26-22.25,21.75-62.71,37.93-78.14,11.13-10.62,27.56-17.45,39.2-27.82,1.77-10.37-6.83-6.07-12.39-3.54-28.83,13.66-57.15,47.29-68.02,77.13-3.79,10.62-11.63,55.38-19.22,59.68-3.29,2.02-14.16-3.54-19.73.5,2.28-12.14,8.09-23.01,10.62-35.15,6.58-33.63,5.82-50.07,22.51-82.18ZM2487.15,899.75c-.51-4.8-3.29-7.84-.51-12.14,11.63-18.46,31.86,12.39.51,12.14ZM2478.04,930.85c2.02-10.11,2.02-23.77,15.43-22,4.8,13.15,1.01,27.82-15.43,22ZM2514.96,926.56c1.52,2.78-.25,10.87-1.77,12.64-1.52,1.77-7.33,3.29-9.61,3.03-12.14-1.52,4.05-26.3,11.38-15.68ZM2505.1,905.82c2.28-8.34,15.17-5.82,22-6.07,4.3,16.94-26.55,22.51-22,6.07ZM2522.04,875.98c.76.25,9.86,9.86,9.36,11.63-.51,2.53-5.06,3.29-7.59,3.54-19.98,1.26-17.95-22-1.77-15.17ZM2542.53,913.15c5.82,7.59-12.64,22.76-19.98,10.11,4.55-2.53,15.68-15.93,19.98-10.11ZM2542.02,891.15c12.14-3.29,11.89,10.87,3.54,12.9-8.09,2.02-13.91-9.86-3.54-12.9ZM2324.04,584.16c14.67-32.12,18.97-54.87,48.55-78.39,62.21-49.56,159.31-51.84,233.91-38.44,7.59,1.26,18.46-2.53,23.01,6.83-49.82,20.99-65.75,79.4-100.14,117.08-62.71,68.28-143.89,41.73-225.06,34.39-1.77-1.52,17.2-35.91,19.73-41.47ZM2295.47,642.58c1.52-2.02,3.29-4.55,5.82-5.31,11.38-3.29,45.52,6.83,59.93,8.35,45.77,5.31,96.85,7.84,138.83-14.67,5.82-3.03,11.88-7.59,16.94-11.88,46.02,64.99,26.3,144.64,21.24,218.23-3.29.5-3.54-6.07-3.79-8.35-1.52-9.86-1.52-19.73-3.54-29.84-8.85-43.75-28.32-92.81-60.69-124.41-2.78,2.53-4.05,3.54-3.04,7.59,1.01,3.54,16.94,20.99,20.99,28.07,25.79,45.26,37.93,102.67,34.64,154.76l-17.95,5.82c-19.47-33.63-32.62-78.39-54.37-109.49-2.02-2.78-.25-5.56-5.82-4.3l49.06,114.81c-12.64,7.59-23.27,9.36-37.93,7.84-3.03-11.38,14.41-7.84,12.14-17.95-2.02-9.61-19.73-36.16-26.55-44.51-17.45-20.99-36.67-34.14-63.22-41.72-4.3-1.27-24.78-3.03-24.78-6.07,9.36-5.31,15.17-15.17,23.77-20.99,15.17-10.37,57.4-27.82,75.61-29.08,6.32-.25,12.64,5.82,18.71-1.26,10.37-11.63-28.32-15.43-34.14-17.45-11.88-3.79-26.8-9.61-38.18-15.17-37.17-18.21-53.1-45.27-99.13-40.71-3.03.25-5.56,3.29-4.55-2.28ZM2386.25,989.52c-15.17-.25-31.86,13.66-45.27,15.17-4.55.5-43.75-2.28-45.77-3.54-1.01-.51-10.62-17.95-10.87-20.23-3.29-16.94,8.35-28.07,1.01-52.09-2.78-9.61-14.16-20.74-14.67-25.79-1.01-12.39,23.26-29.33,22.51-43.24-.51-.76-7.59,4.05-9.1,5.31-3.54,3.29-18.71,29.08-22.25,25.79,2.28-9.1-9.61-9.61-8.85-14.41,6.58-15.68,21.49-28.83,24.53-45.77-5.31,0-9.61,7.59-12.14,11.38-6.07,8.85-9.1,19.98-15.93,28.58-6.07,1.77-22-20.48-20.48-27.06,2.53-12.39,41.47-42.48,53.61-46.78,10.62-3.54,30.6-9.61,41.73-11.88,57.91-12.39,105.96,24.53,131.24,74.09.76,5.56-18.21,11.63-16.69,20.74,8.85,7.59,20.99,9.1,32.12,9.1,7.84,4.8-7.59,48.05-10.62,56.64-25.03,72.83-45.01,100.64-128.21,94.83-15.68-1.26-29.33-4.8-43.24-11.63l6.83-19.47c15.17-3.29,32.62,3.03,47.29,1.77,11.13-1.01,21.75-8.85,31.86-10.37,15.17-2.28,32.62,4.05,42.99-10.62l-31.61-.51ZM2415.58,706.05c.76,3.29-.25,3.54-2.28,5.31-6.83,5.31-21.24,11.38-29.59,17.2-19.47,13.91-38.69,36.41-61.2,43.5-12.9,4.3-29.33,5.82-42.74,9.61,2.78-14.67,3.79-30.09,0-44.51,7.59-1.01,9.36,11.13,14.41,13.4,3.54.5,3.79,0,3.29-3.29-1.26-9.61-17.2-23.01-17.7-34.64,4.8-4.8,52.35,33.63,63.47,31.1,4.3-10.37-25.29-10.37-16.94-20.74,4.05-5.06,33.38-1.01,38.18-12.64h-26.8c-1.26-5.06,1.01-3.54,2.78-5.06,5.56-4.3,14.16-5.82,17.2-12.64-17.2.51-30.09,16.44-46.28,21.75l-34.64-11.13-12.39-33.88c60.69-52.85,97.1,18.97,151.22,36.67ZM2197.1,472.9c3.03-44.76,27.56-73.84,45.27-113.03,10.11-23.01,17.7-47.29,27.31-70.55,13.4,37.43,53.36,80.16,52.09,121.13,0,8.34-3.54,21.49-5.31,30.35-11.13,59.93-42.23,117.33-45.52,177.26-.51,7.08,2.02,34.39,1.01,36.67-1.52,3.54-7.84,7.59-12.14,6.58l4.3-58.92c6.83-45.52-17.2-87.49-6.58-131.24,2.78-10.87,7.84-21.49,10.37-32.11,7.08-30.85,6.07-63.73,2.78-95.08-.51-5.06-7.08-13.4-2.02,0-1.26,16.44,1.52,34.9,0,51.08-4.3,38.94-27.56,73.08-24.28,113.54,1.27,15.93,7.59,32.87,8.6,49.06,1.01,11.88,1.77,69.03-1.01,77.13-2.02,5.31-2.53,1.77-4.05-.51-30.09-45.52-54.37-105.96-50.83-161.34ZM2193.81,592.51c50.58,19.98,83.7,129.72,76.88,179.04-4.05,28.58-29.59,34.14-45.52,54.62-2.28,0-9.61-22.25-9.61-25.54-.25-12.9,9.36-38.94,10.62-55.63,1.26-18.97.51-40.71-2.28-59.17l-6.83,72.07c-2.28,8.6-2.02,19.72-6.07,27.82-1.01,2.02.5,3.29-3.79,2.78l-16.18-17.2c0-19.47,4.55-37.17-2.78-56.39l-6.58,53.36c-25.54-3.79-31.86-15.68-38.44-38.44l-10.62-52.85c-5.56,21.49,1.26,43.24,6.32,63.98.76,3.29,1.77,6.07-2.78,5.06-2.78-1.01-17.95-25.29-19.47-29.59-6.58-15.43-6.32-34.39-14.41-50.32-7.33-15.17-20.23-25.54-31.86-37.43-1.01-6.32,46.78-43.24,57.91-40.71l-4.3,18.46c9.1,9.86,22.76,15.17,34.39,6.07,13.65-10.87,10.11-29.84,35.4-19.98ZM2000.87,555.84c-18.97-49.56,1.27-107.47-6.32-160.83-2.78-17.95-9.36-38.18-22.25-51.08,9.36-.25,25.79,8.35,34.9,13.91,63.98,39.45,102.42,95.59,135.54,160.83,10.11,20.23,17.2,41.73,27.56,61.7-7.84,8.6-15.68,31.1-29.33,27.06-13.66-7.33-.51-22.76,7.33-29.59,3.03-13.91-35.65,6.58-40.97,8.09-2.02.76-2.02,3.29-4.8-.25-4.8-35.15-5.82-74.09-19.98-106.97-7.08-15.93-36.67-65.5-49.06-75.86-2.53-2.02-3.54-5.31-7.84-4.3-4.05,4.3,24.02,42.48,27.56,49.06,16.44,30.35,27.56,68.53,33.89,102.41,2.02,11.13,8.35,38.69,2.28,47.04-3.29,4.05-9.61,6.83-13.65,10.87-4.3,4.05-9.1,14.67-15.43,14.67-1.01,0-18.46-6.83-20.23-7.84-12.64-7.84-33.89-44.5-39.2-58.92ZM1918.93,506.53c15.93-14.67,28.07-37.93,38.69-56.9.76,19.72-3.79,39.2-3.29,59.17.25,12.14,4.05,27.82,4.55,39.95.51,11.63-.25,23.26,0,34.64-7.84-3.29-14.67-7.84-21.24-13.4-9.36-7.84-32.62-31.36-38.94-40.97-6.83-10.12,12.64-15.43,20.23-22.51ZM1921.21,582.39c0,3.79-12.39,21.49-15.17,27.31-13.4,27.56-23.52,56.9-27.31,87.24,6.07,1.27,3.79-1.52,5.31-4.3,15.17-27.56,20.23-59.68,36.67-86.23,17.2-28.32,16.18-15.43,38.18-6.32,16.18,6.83,52.09,8.34,62.46,19.98,5.31,6.07,12.64,33.63,13.15,42.48,4.05,50.07-60.44,140.6-91.29,180.3-23.01,29.33-47.79,60.94-79.15,81.43-3.54-2.02.76-5.06,2.02-6.83,23.77-36.41,55.13-71.31,74.6-110.51,11.88-23.26,28.07-60.69,24.78-86.48-.25-3.04-1.52-6.83-4.3-3.29-9.1,66-53.61,125.93-92.81,178.02-6.58,8.6-20.23,28.58-27.31,34.9-2.53,2.02-3.79,3.79-7.59,2.78-3.03-.76-25.79-15.17-25.79-18.21,23.77-32.88,44-68.53,53.1-108.48-4.8,1.77-7.84,4.05-10.87,8.09-9.36,12.9-17.45,40.71-25.79,56.64-7.59,14.16-16.69,27.82-25.79,41.22-3.03,2.02-38.69-6.07-42.23-8.85-1.52-1.26-2.53-2.53-2.28-4.55,40.21-99.63,82.94-203.31,80.16-313.06-3.03,1.26-3.54,11.38-4.05,14.67-1.52,11.38-1.27,23.77-2.78,35.15-10.87,76.62-37.17,152.23-64.48,224.3-4.3-1.52-2.28-13.15-1.77-16.44,4.3-38.94,22.25-89.27,15.17-127.45-.76-3.54,1.52-3.79-4.3-3.29-7.33,46.78-11.38,94.32-20.73,140.85-1.52,7.33-6.32,34.14-8.6,38.18-2.78,4.3-3.79,4.05-8.6,3.79-1.01-1.26-2.02-25.29-2.78-29.59-4.05-19.73-16.94-39.7-19.22-60.94-2.53-21.75,1.01-46.78-.25-69.03-2.53-50.58-14.92-99.89-35.66-145.91-4.3-.51-1.77,4.55-1.26,6.83,3.29,17.2,11.38,35.4,15.68,53.36,8.6,36.67,12.64,75.36,14.41,112.78,0,4.3,1.01,6.83-3.29,9.86-21.75-41.72-35.91-87.24-58.67-128.46-3.54-6.58-20.99-36.92-24.78-39.95-2.53-1.77-8.09-2.53-6.58,2.28,37.68,59.93,63.47,129.22,86.74,196.23,1.77,4.55,10.87,29.84,8.85,32.37-3.79.76-5.56-2.02-7.84-4.55-39.45-40.71-58.16-87.75-109.49-119.86-5.56-3.54-14.67-10.87-20.74-8.35,25.79,19.98,49.31,37.93,70.3,63.47,20.48,25.29,43.24,55.63,62.97,81.93,1.52,1.77,17.7,24.78,8.09,20.74-1.01-.51-17.45-15.17-19.98-17.7-27.31-26.05-40.71-50.32-62.71-77.89-39.2-50.07-82.44-4.55-124.16-25.03-10.11-5.06-21.75-23.52-23.52-34.39-2.78-17.2,6.32-41.47,1.01-61.2-1.26-5.31-13.15-19.73-17.7-22.51-4.55-2.53-8.85-1.26-12.39-3.03-4.8-2.53-11.38-29.33-14.67-36.92-6.07-13.91-13.66-27.31-22.25-40.21-2.78-8.85,11.13-32.12,19.98-33.38,19.73-2.53,34.64,7.59,52.6,12.39,35.15,9.36,97.86,16.18,130.23-1.01,16.44-8.6,30.34-30.09,47.79-34.64,10.37-2.53,21.75-.25,32.12-1.52,11.63-1.01,24.28-8.09,33.89-8.6,17.2-1.01,31.1,17.45,48.3,23.01,21.49,6.83,46.28,5.31,68.28,12.14,32.62,10.37,54.37,37.93,74.09,64.23ZM1207.85,716.16c.76,23.77,6.07,49.56,13.4,72.32-3.29,3.29-10.87-11.38-12.14-13.4-27.06-46.02-44.76-98.87-46.02-152.74-.25-19.98,32.87-46.28,42.74-64.74,23.01,2.53,46.78-4.8,67.52-14.67,17.2-8.09,14.41-14.41,37.93-12.64,27.56,2.02,59.17,13.15,84.97,21.75,14.67,27.56,26.3,58.67,36.67,88.25,19.98,55.89,37.68,117.33,33.13,177.77-1.52,20.23-7.08,21.49-13.4,35.65-9.36,20.48-5.06,27.82-28.58,38.18-14.41,6.32-51.59,20.74-65.75,21.49-38.69,1.52-80.41-44.25-99.13-74.85-31.1-51.33-40.71-111.27-42.23-170.44-3.29-.76-5.56.76-6.32,3.79-3.29,10.12-3.29,32.87-2.78,44.25ZM1355.02,445.33l55.63,26.8-26.55,62.21-25.79-8.85c-8.35-8.85-6.58-77.89-3.29-80.16ZM1455.41,645.86c14.16,3.79,17.2,28.07,13.15,39.95-9.36-9.61-9.36-27.31-13.15-39.95ZM1477.67,783.93c3.03-3.29,34.14,20.99,38.44,24.78,2.53,2.02,4.8,2.28,3.79,6.32l-33.38-2.02c3.79,14.41,23.77,7.08,33.38,16.69-10.37,5.31-27.06,7.33-30.35,20.99-.76,4.05-1.01,4.05,2.53,6.83l16.69-5.56c-1.01,7.08-7.59,12.39-10.12,18.97-2.02,5.31-2.53,23.52-8.85,22.25-1.52-.5-20.99-19.22-20.99-21.24,6.83-28.58,12.39-58.67,8.85-88ZM1651.39,870.92c-3.79.51-6.58-1.26-9.61-2.78-19.47-9.36-39.7-30.35-60.18-42.23-14.41-8.35-30.35-13.91-44.51-22.51-19.47-11.13-35.4-28.58-57.4-33.88l-4.3-25.79c6.83.76,8.09,8.09,13.4,12.14,13.4,10.37,45.27,14.67,62.97,22,42.48,17.45,74.6,55.63,99.63,93.06ZM1555.55,761.68c14.41-1.01,30.6-6.57,44.51-1.26,16.94,6.83,44.76,64.99,51.33,83.7-26.3-26.05-46.53-52.35-79.66-70.8-5.56-3.29-16.18-3.54-16.18-11.63ZM1527.48,859.54c2.78-2.02,18.21-4.55,22.25-4.3,17.45,1.26,67.01,45.52,78.14,60.18,1.77,2.28,4.3,2.78,3.54,6.58-2.02,1.77-35.4-2.02-40.21-3.03-12.64-3.03-60.44-29.59-65.5-28.07-9.86,3.03,2.53,22.5,5.56,27.56,2.53,3.54,15.93,14.41,3.29,12.39-8.35-1.26-16.69-5.82-25.29-7.08l-9.36-20.48c0-3.03,25.04-41.98,27.56-43.75ZM1608.91,953.11c-10.62-1.52-89.77-35.65-77.88-51.08,26.8,15.68,57.65,26.8,77.88,51.08ZM1515.6,934.14c6.32,1.01,16.18,5.82,23.52,7.84,32.62,8.6,68.28,20.23,97.36,38.44,3.29,1.77,6.58,4.3,6.07,8.6-41.22-4.8-80.92-14.92-121.13-25.04-2.28-.76-3.29-2.53-4.3-4.55-2.28-4.3-9.1-26.55-1.52-25.29ZM1571.23,985.48c2.02.76,7.84,4.05,6.58,5.56l-32.12,15.68-21.24-31.1c1.77-1.52,41.47,8.09,46.78,9.86ZM1578.82,1002.16c17.45-5.82,42.48-11.13,60.44-8.85,9.36,1.26,20.74,17.7,20.99,26.8-12.64.25-24.28,5.56-36.67,6.58-17.7,1.52-43.75-1.26-60.94-5.82-2.53-.76-13.91-2.02-11.63-6.32,1.52-2.28,23.52-10.87,27.82-12.39ZM1644.82,967.77c-3.29,2.28-3.54.51-5.82-1.01-10.87-7.59-22.25-25.03-33.38-33.63l2.28-4.3c.51,0,3.79,2.28,6.58,2.28,13.65,0,29.08-3.79,36.92,9.86,3.54,5.82-2.53,24.28-6.58,26.8ZM1651.39,923.27c-18.97-17.45-60.69-69.03-83.96-74.35-10.37-2.28-21.24.25-31.36,1.26-2.28.25-6.83,2.02-5.06-2.78,2.53-6.07,23.52-15.68,22.51-25.54,3.79-.76,6.32,1.01,9.36,2.53,14.92,7.33,55.13,39.2,69.54,51.08,9.61,7.84,16.69,18.97,28.07,25.29l-2.53,25.79c-3.54.76-4.55-1.26-6.57-3.29ZM1507.76,496.67c9.61-3.29,42.48-8.09,53.36-9.1,21.75-1.77,44,2.28,65.75-2.28-1.77,22.25-27.06,34.9-46.28,39.7l-89.52-12.9c-3.29-3.54,13.15-14.16,16.69-15.43ZM1912.11,385.15c16.69,47.54-10.62,88.51-44,119.86l-31.86-7.33-2.28-4.55,4.8-33.13c3.03-4.8,10.87-5.82,15.17-9.36,15.43-12.14,23.27-39.45,40.46-53.1l17.7-12.39ZM1811.71,336.85c20.74-2.53,13.66,14.16,16.69,28.32,6.83,31.61,47.29,6.07,68.02,8.85,1.77,9.36-7.84,10.11-12.39,15.43-4.8,5.82-17.2,20.48-20.73,26.05-4.3,7.08-5.06,16.18-9.1,22-5.82,8.09-29.08,12.39-29.08,24.53v34.39c-3.54-1.01-16.69,3.03-15.43-3.03,6.83-29.59,23.01-55.63,31.1-84.97l-4.55-2.28-12.14,21.24c-5.82.25.25-42.99-16.69-42.23l3.29,44.51c-13.91-22.76-34.64-24.53-59.17-26.8,20.23-19.22,29.33-61.95,60.18-66ZM1804.64,474.67c-6.32,39.95-33.63,7.08-51.59-.76-24.53-11.38-37.93,1.77-60.69,4.55-9.36,1.01-18.97-.76-28.32.76-4.3.76-23.01,9.36-23.77,8.35,6.83-47.79,45.77-47.79,82.44-61.2,4.3-1.77,6.58-5.56,9.1-6.58,46.02-17.95,80.67,3.79,72.83,54.87ZM1557.83,328.25c8.09-12.14,4.8-26.55,10.62-38.44,6.07-12.39,21.75-20.48,35.15-20.74,5.06,0,9.36,2.53,13.4,2.53,7.59-.25,13.4-3.54,22-2.28,18.97,2.78,38.44,54.12,47.54,70.55,5.56,9.36,42.74,66.25,38.44,72.07l-6.83,1.01c-10.37-12.39-23.01-27.56-35.65-37.93-6.32-5.31-15.93-14.92-24.53-11.13,18.46,16.44,35.66,33.63,49.06,54.62l-49.56-36.16c-8.35-1.01-17.95-9.61-25.03-10.62-4.8-.76-4.3,3.03-3.29,5.56.5,1.77,26.05,14.41,30.85,17.95,8.85,6.32,19.73,17.2,27.06,25.54l-89.77-47.29-10.62-1.77c-.76,5.06,0,5.56,3.79,8.6,12.9,9.86,48.3,27.31,64.48,35.65,3.03,1.52,6.32,2.53,9.86,2.53.51,3.79-5.31,2.28-7.59,2.02-5.06-.76-30.6-8.34-32.62-6.58-.51,5.06-.51,6.07,3.79,8.6,5.82,3.54,38.44,8.35,38.69,10.37-17.95,7.84-27.56,20.48-33.89,38.69-10.11,6.32-43.75-18.97-55.38-23.01-17.7-5.82-40.21-3.29-55.63-13.66-10.87-7.33-29.33-31.36-31.1-44.51-6.07-45.52,48.05-34.9,66.76-62.21ZM1481.96,405.12l18.97,26.8c23.26,26.3,46.53,20.99,76.37,30.6,10.37,3.29,17.45,7.84,27.31,11.63l-100.9,13.91c-8.09,1.01-23.26,21.49-29.33,19.47-8.6-2.53,3.54-32.11,4.8-39.45,3.54-20.74,2.78-41.98,2.78-62.97ZM1458.7,313.84l16.69-26.8c.51,18.97,2.28,37.68,2.28,56.9-.25,41.98-1.77,84.71-9.61,126.18-2.02,10.62-6.83,20.23-8.35,30.85-17.45-1.01-29.08-11.13-41.98,5.82-7.59,9.86-8.6,32.11-24.78,29.84l26.55-56.39c17.45-5.82,13.66-34.14,17.7-52.09,4.3-19.47,23.01-57.4,22.51-73.08,0-4.55,1.52-6.58-4.3-5.56-10.37,23.77-21.75,47.29-24.78,73.59-7.59-8.09-9.61-18.97-16.69-28.83-2.78-3.79-20.99-21.75-20.99-23.77,23.26-17.45,46.28-34.64,65.75-56.64ZM1367.66,366.69c19.98,11.13,51.33,52.6,53.86,75.36.51,5.06,3.03,26.3-6.32,22.25-31.86-18.21-69.03-25.54-91.29-56.9,17.45,1.52,29.33,10.37,38.94,24.53,2.53-2.78-2.28-9.61-3.79-11.88-12.39-18.21-48.3-31.61-69.79-28.07-6.83,1.01-11.38,7.33-18.97,6.58-3.54-22,32.11-44.25,50.32-44.76,11.13-.25,36.92,7.33,47.03,12.9ZM1347.18,440.78c-3.79,18.97-6.32,38.44-5.56,57.91-27.06-15.68-39.2-42.48-56.9-66.51-5.31-7.33-15.43-11.89-14.41-22.51,12.14-1.01,23.77-10.11,36.41-6.32,8.6,2.53,28.83,33.13,40.46,37.43ZM1348.19,294.87c0,10.62,1.52,25.79,0,35.65,0,.76-2.02,6.32-4.3,5.56-7.33-20.23-2.02-43.5-13.4-62.46,11.13-3.54,17.7,13.15,17.7,21.24ZM1312.03,278.69c1.52-3.54,9.1-6.58,11.63-4.8,7.84,5.56,6.83,55.38,13.4,66.51-23.26-4.8-33.13-42.99-25.03-61.7ZM1251.34,344.94l49.06-62.46c-1.27,22.5,2.53,43.75,18.97,60.18-28.58,6.07-58.16,26.3-58.92,57.91-2.53,3.54-3.54,1.26-5.82-1.01-7.33-8.6-1.52-12.9-2.02-22.25-.51-10.87-4.05-22.25-1.26-32.37ZM1179.02,111.03c4.05.76,4.05,4.3,4.55,7.59,1.77,17.7.25,37.17,2.02,54.88l4.55-24.53c3.79.51,3.79,4.3,4.8,7.33,5.82,19.72-5.56,46.28-9.36,66l-4.05-3.79c-2.28-36.41-18.46-71.82-2.53-107.47ZM1123.64,84.98c38.44,41.22,46.28,96.85,50.83,150.71-2.78,3.29-15.17-15.68-16.44-17.95-24.28-38.69-35.66-93.06-41.47-137.82,4.8-1.26,5.06,2.53,7.08,5.06ZM1094.31,81.95c2.28-2.78,15.68,13.91,16.69,15.68,4.3,9.1,3.54,27.56,5.56,37.93-5.31-6.07-22.25-22-24.02-28.32-2.28-7.84,3.54-16.94,1.77-25.29ZM1106.7,8.36c7.33,9.1,8.85,22.51,7.08,34.14-1.01,6.57-5.82,13.91-6.07,18.46-.25,6.32,4.3,15.93,2.28,23.26-.51.51-5.82-2.53-6.83-3.79-5.31-6.83-24.78-52.6-24.28-59.93.51-7.59,23.01-15.68,27.82-12.14ZM1071.04,28.59c2.02,0,15.93,36.41,16.44,39.2.76,4.55,1.52,32.11-3.29,32.11-12.64-6.07-26.3-71.06-13.15-71.31ZM1080.9,110.02c.25-2.53,5.56,1.26,6.07,1.77,9.61,9.1,33.38,40.21,40.46,52.09,2.78,4.8,19.73,43.24,18.21,45.26-9.1-8.35-24.02-9.36-32.88-15.17-14.41-9.61-28.83-66-31.86-83.96ZM1096.58,195.74c1.26-1.52,31.86,12.39,35.4,14.67,7.33,4.55,37.68,36.67,42.48,44.25,8.09,12.64,2.53,19.98,2.78,31.36,0,3.04,5.82,18.97.5,18.71-8.6-11.63-90.53-99.63-81.17-108.99ZM1186.61,391.97c-16.18-3.54-29.08-.25-42.99-10.37-16.69-12.14-25.03-34.39-24.78-54.37,12.64.51,25.79,13.66,33.38,23.27,8.6,10.87,9.1,23.52,20.23,31.1,8.34,5.82,23.26,9.1,33.38,12.39,1.52,9.86-14.92-1.01-19.22-2.02ZM1173.46,371.75c-6.32-5.31-7.08-15.68-11.38-22.25-11.38-17.45-40.97-28.07-45.52-51.33,24.28,2.02,41.73,15.68,56.64,33.63l34.64,51.08c-1.52,1.26-31.1-7.84-34.39-11.13ZM1204.56,347.22c-10.62-10.37-1.77-19.73-1.01-30.09.51-9.61-.76-19.47,0-28.83,1.26-15.93,5.82-31.86,4.3-48.05-6.07-1.01-3.54,1.27-5.06,4.8-7.33,20.48-4.55,45.27-9.36,66.51-2.53,4.8-7.08-2.53-7.84-5.56-5.82-32.87,6.58-71.56,15.93-102.16,1.01-2.78,1.26-22.25,6.32-16.94,24.78,56.9,32.62,97.86,2.53,154.76-1.27,2.53-2.02,6.32-5.82,5.56ZM1273.6,447.61c-15.68-20.48-55.38-58.41-60.69-81.93-1.52-7.08-1.52-8.6,5.82-7.08,17.7,43.24,58.67,70.8,78.39,113.29-7.84,6.58-19.47-18.97-23.52-24.28ZM1117.82,478.71c8.6-7.59,33.38-24.53,44.51-24.78,8.6-.25,73.84,14.16,79.91,18.46,2.53,1.77,4.3,2.53,3.54,6.32-38.94,8.6-83.45,25.29-114.55,51.33-2.28,1.77-17.2,15.17-14.67,17.7,12.9-4.3,22.25-15.68,34.14-22.76,28.32-16.44,97.36-40.21,129.73-41.72,6.32-.51,20.48-1.27,25.54,1.01,2.28,1.01,29.08,24.78,32.12,28.07,1.52,1.52,7.33,9.36,5.82,10.87-7.08-2.53-23.52-2.78-29.08-5.56-4.05-2.02-4.55-10.12-9.61-9.86-22,13.4-43.5,27.82-68.78,33.89-16.18,4.05-16.18,2.53-30.09,0-13.91-2.53-22.76,25.79-30.09,35.65-26.05,35.66-60.18,58.67-102.67,71.31-24.02,7.08-50.32,6.58-72.83,19.47-3.29-4.3,16.18-19.22,19.98-23.52,10.87-12.64,48.8-57.91,54.62-70.3,1.01-2.28,1.52-4.05,1.01-6.58-4.8-5.31-30.85,31.86-34.39,35.66-7.59,8.6-16.69,16.18-24.53,24.53-2.53-4.05,1.26-10.87,3.03-14.92,12.64-30.85,72.32-111.77,97.36-134.28ZM1078.63,498.94c.76,3.54-.76,6.58-2.53,9.36-15.68,28.58-42.74,53.36-58.67,83.96-8.09,15.43-29.84,62.71-33.38,77.88-1.26,5.56-1.52,10.37-1.26,15.68,12.39-1.77,20.99-8.6,33.88-11.88,40.21-9.86,67.01-9.86,106.21-29.59,4.55-2.02,23.52-17.7,27.06-14.16,1.52,27.31,7.33,57.4,15.68,83.7,8.6,26.8,25.03,48.55,35.65,74.6-27.06-22.25-46.53-51.59-65.75-80.16-17.95-8.85-6.07,7.59-2.02,15.17l58.92,78.14c-42.48-22-81.68-46.02-119.36-75.61-3.79-3.03-16.69-20.99-17.7-9.1-.51,6.32,22.76,28.58,28.83,33.63,16.18,14.16,35.15,24.28,52.09,36.92,3.54,2.78,10.37,4.8,9.36,9.86-41.22-8.09-81.68-19.73-120.88-34.14-10.87-3.79-70.3-30.85-74.35-30.35-1.52.25-4.3,4.8-3.03,6.58,73.59,36.92,151.73,63.47,231.63,83.45,3.54,2.53,1.52,3.79-1.77,5.06-8.6,3.54-31.86,6.57-41.73,7.33-54.62,3.54-209.89-29.59-252.88-63.47-20.48-16.18-19.98-25.03-30.85-45.01-15.43-29.08-28.58-23.77-25.04-66.51,3.03-36.41,28.32-49.31,39.2-76.88,8.09-20.74,1.52-39.45,14.92-60.94,14.92-23.77,26.8-16.94,47.79-25.54,7.59-3.03,17.45-12.9,25.29-14.92,8.09-2.28,16.44-.5,25.03-1.77,9.61-1.27,18.71-7.33,27.31-8.35,25.79-3.03,48.3,19.72,72.32,27.06ZM704.62,722.23c-15.17-30.6-19.73-45.52-25.79-78.9-2.78-15.93-16.44-35.4-18.97-49.82-.25-1.52-.76-3.79,1.01-3.54,38.18,44.51,102.42,42.48,149.96,69.54-1.26,23.77,1.27,36.67,14.16,56.14,11.89,17.45,14.41,18.21,23.77,38.69,3.29,7.59,15.93,12.14,14.92,20.74-43.49-29.84-90.53-55.63-130.48-90.28-9.86-8.6-18.71-20.48-28.83-29.08-1.77-1.52-4.55-5.82-6.58-2.28,42.99,61.95,114.81,95.59,173.73,140.6.76,4.3-1.01,2.53-2.78,3.79-8.6,5.06-18.46,7.59-26.3,13.91-10.11,8.35-13.91,21.24-23.52,29.84-53.36-24.02-89.01-68.02-114.3-119.36ZM794.65,899.75c-17.7-18.21-42.74-29.59-68.02-31.1-1.01-5.06.25-3.54,2.78-5.06,17.2-9.36,36.67-11.63,50.07-30.35l33.89,17.7c3.29,5.56-15.17,41.47-18.71,48.8ZM904.4,372.5c12.14-27.56,32.62-41.98,52.85-63.22-.25,24.53-.51,52.35,6.32,76.37,3.29,11.89,36.92,72.32,32.62,77.38l-46.78,8.85c-6.58-35.4-8.6-71.82-4.3-107.98l-4.55-3.29c-8.6,38.18-9.1,78.14-2.53,116.58-15.68,15.43-32.87,15.68-44.25-4.05-11.89-20.48,1.01-78.64,10.62-100.64ZM715.75,466.32c-14.41-14.67-11.13-41.22-14.16-59.43-2.78-15.68-7.84-30.85-10.62-46.28,18.97,27.56,38.94,39.2,68.28,53.1,42.23,20.23,80.41,31.61,116.58,63.72,2.78,2.53,15.43,13.91,13.4,16.69-20.23,7.59-30.85,26.05-32.12,46.78-33.63-48.8-84.21-81.68-128.21-120.12.76,6.58,7.84,14.92,12.39,19.73,37.93,40.71,86.74,72.07,114.05,122.14,4.05,13.66-6.07,20.74-10.87,31.61-9.61,0-17.2-3.54-27.06-1.52-13.4,2.78-22,22.51-33.63,21.24-17.7-1.77,2.02-24.78,3.03-34.14.76-9.1-5.56-25.79-11.13-33.13-3.54-4.8-12.39-10.37-14.41-14.67-6.07-12.39-.25-28.83-9.1-42.23-9.1-13.4-27.06-13.91-36.41-23.52ZM773.41,566.71c1.77,2.78,2.78,5.06-1.26,5.56-1.77,0-15.93-5.31-20.48-6.07-4.55-1.01-13.91.25-15.68-1.01-1.26-.76-10.62-16.18-17.2-22-4.3-3.54-12.64-4.05-12.14-11.13,26.8-8.6,53.86,12.64,66.76,34.64ZM656.32,558.87c22.25-15.17,42.74-28.32,63.47-3.29,4.3,5.06,8.6,15.93,12.64,18.71,5.56,3.79,26.55-1.77,36.67,7.84,11.38,11.13-16.18,18.21,1.01,36.92,20.48,23.01,39.2-25.54,63.47-14.67,3.54,2.78,1.01,3.54-.51,6.32-5.56,11.13-13.15,22.25-15.17,34.9-2.78,2.28-27.06-10.37-32.87-12.64-41.22-15.68-84.21-21.75-117.59-53.86-4.05-4.3-14.41-14.16-11.13-20.23ZM608.53,608.94c3.04-4.05,28.07-31.61,30.09-32.37,4.8-1.01,8.6,12.9,10.12,16.69,27.31,75.36,40.97,158.3,103.68,215.2,2.78,2.53,15.68,10.62,16.18,11.38,4.8,8.09-31.1,28.58-38.18,31.36-11.13,4.55-25.29,6.83-37.17,6.32-1.01-4.8,2.53-5.06,5.06-7.08,5.82-4.3,18.21-11.13,19.47-18.46.51-3.54,0-4.05-3.29-3.54l-30.09,24.53c-.5-9.36,7.33-15.68,10.62-23.77,21.49-54.88-30.85-97.86-34.14-149.96-11.63,23.26,6.07,43.75,13.4,64.74,9.61,27.31,28.83,69.79,5.56,93.31-3.03-17.95-9.1-37.93-26.8-46.78l15.68,35.66c-9.36.25-8.6-12.14-15.68-15.43,0,8.85,6.83,16.44,10.37,24.28,1.26,3.29,5.31,2.53-.25,6.83-5.82-4.8-9.61-11.38-13.4-17.7-25.54-43.24-60.44-111.77-61.45-161.59-.25-19.22,9.36-38.69,20.23-53.61ZM647.47,870.16c8.6-10.12,45.01,5.82,23.01,11.38-7.59,2.02-29.59-3.29-23.01-11.38ZM659.86,903.29c-8.09,1.77-13.91-9.86-3.54-12.9,11.89-3.54,11.89,10.62,3.54,12.9ZM392.57,680.51c19.73-15.17,31.1-19.73,56.64-21.5,68.28-4.3,93.31,5.31,130.48,61.45,25.29,38.18,42.48,81.17,66.76,120.37-2.53,2.28-2.53,4.55-5.56,1.01-5.56-6.58-11.38-19.47-17.2-27.56-7.84-10.62-18.71-21.24-25.54-32.11-21.24-35.15-25.79-73.59-70.55-92.3-7.33-3.03-71.56-17.7-78.39-17.45-19.47.51-58.67,20.23-76.87,29.08-2.78-3.04,17.2-18.71,20.23-20.99ZM585.01,897.22c12.14-3.54,11.89,10.62,3.54,12.9-8.09,1.77-13.91-9.86-3.54-12.9ZM586.03,924.53c-3.54,5.06-24.53,12.64-27.31,4.05-3.79-10.87,37.43-18.71,27.31-4.05ZM607.77,907.84c4.8,13.4.76,28.07-15.43,22.25,2.02-10.37,2.02-23.77,15.43-22.25ZM601.45,898.74c-.51-4.8-3.29-7.59-.51-12.14,11.63-18.21,31.86,12.64.51,12.14ZM629.27,925.54c1.52,2.78-.25,11.13-1.77,12.9-1.52,1.77-7.33,3.29-9.61,3.03-12.14-1.52,4.05-26.3,11.38-15.93ZM619.4,905.06c2.28-8.35,14.92-5.82,22-6.07,4.3,16.94-26.8,22.5-22,6.07ZM638.12,890.14c-19.98,1.52-17.95-22-1.77-15.17.76.5,9.86,10.11,9.36,11.63-.51,2.78-5.06,3.54-7.59,3.54ZM349.59,742.21c9.1-3.79,17.7-24.78,31.36-33.38,7.84-4.8,42.99-19.22,51.84-21.49,21.24-5.31,33.88,4.8,52.85,9.1,17.95,4.05,45.27,4.3,59.43,16.18,26.3,22,26.55,41.22,41.72,67.52,13.91,24.28,38.69,43.24,45.77,71.56-9.86,16.18-13.65,2.28-19.98-8.35-9.36-15.93-15.68-36.41-26.8-51.33-6.58-9.1-15.43-13.4-21.75-20.23-13.91-15.43-14.92-30.35-36.41-41.73-10.12-5.31-33.13-14.67-41.73-4.05,17.45.51,41.47,8.85,52.6,22.25,6.58,7.84,10.11,19.98,16.44,27.82,9.1,11.13,24.02,17.45,30.09,32.62l27.82,55.13-13.15,4.8c-7.84-25.29-16.18-53.86-36.92-71.31-14.41-12.14-50.83-27.31-69.29-31.1-2.78-.51-4.55.76-3.03,3.29,1.26,2.02,30.09,12.39,35.66,15.43,27.31,14.41,46.53,32.87,53.36,63.72-2.53,2.53-47.79-25.54-54.62-26.8-3.29-.5-6.32-1.26-5.31,3.29,1.26,3.03,26.05,18.97,31.36,22,2.28,1.77,46.78,24.78,39.95,30.35-58.16,10.62-94.58-7.59-138.32-41.22-1.77-1.26-4.3-6.07-6.58-2.28,17.95,24.02,47.79,47.29,77.38,53.86,16.18,3.79,30.35,1.77,46.02,5.06,2.78,2.02,1.77,8.6-.76,10.37-2.02,1.26-39.2-5.06-45.77-5.82-49.82-3.79-118.35,2.78-150.97-42.74-11.13-15.93-42.99-68.02-49.06-84.97-13.15-36.92,8.85-20.48,26.8-27.56ZM217.58,859.8c-15.68-18.46-38.69-24.53-53.61-42.48-14.16-17.2-20.74-40.97-32.37-60.18,2.28-1.52,45.27,13.4,53.1,14.92,44,9.36,89.77,4.55,132.51,18.97,20.23,22.51,30.09,56.14,48.55,78.64,44.25,54.12,105.2,35.4,166.9,41.22-.76,3.54-9.1,5.82-12.39,6.58-12.64,3.03-24.53,2.53-37.17,7.33-9.1,3.54-19.47,11.89-28.32,16.44h-4.55c-17.7-9.61-34.9-17.2-51.84-28.58-55.38-37.17-86.48-83.2-155.77-102.67-9.36-2.78-20.23-2.28-29.08-4.3-11.63-2.78-22.76-9.36-34.9-10.62,14.41,17.95,40.71,18.21,59.93,25.79,70.55,27.06,97.1,68.02,155.26,107.47,13.66,9.1,27.56,17.95,43.24,22.76.76,5.06-.25,3.54-3.03,4.8-9.61,5.56-23.01,6.32-33.38,13.4-4.55,3.03-11.13,11.89-14.41,12.64-3.54,1.01-16.18-6.58-22.25-8.09-24.78-6.07-38.18.51-63.73-14.41-41.47-24.28-54.62-67.01-82.69-99.63ZM357.93,1024.67c11.63-2.28,1.77,13.65,1.26,18.97-1.01,10.62,1.26,21.75-1.26,32.12-22,14.41-39.95,30.85-65.75,39.2-48.81,15.68-103.93-3.29-153.75,19.98-3.29,1.52-16.18,11.63-17.95,9.86-.5-3.54,1.77-5.82,3.54-8.6,14.92-22.51,34.64-41.98,48.8-64.99,18.21-29.59,25.03-58.92,57.66-78.14,29.08-17.2,86.99-15.68,120.37-10.62,4.8.76,27.56,5.06,27.82,9.86l-9.86,16.44-126.44,47.29c-26.05,13.4-52.35,27.56-76.12,44.25-4.05,2.78-10.62,5.31-10.11,11.13l201.79-86.74ZM403.45,1172.6c-1.77,7.59-5.56,13.66-6.58,22.51-1.52,14.41,3.79,30.85-5.31,43.75l-79.4,82.18c-1.01-14.67,4.8-31.86,4.55-45.77,0-45.77-23.01-85.73,17.7-122.65,5.82-5.06,37.43-27.82,42.99-27.31,1.77.25,10.37,4.05,10.62,5.31,1.77,7.59-5.31,10.37-8.6,15.68-24.78,40.97-31.86,68.78-44,114.55-.25,1.77-5.06,15.17,0,13.15,13.4-20.48,13.4-46.02,22.51-68.78,7.33-18.97,34.39-66.25,51.59-75.61,4.3-2.53,31.61-12.9,34.14-9.1,6.07,8.85-25.79,19.47-31.1,23.52-13.4,10.11-6.57,16.69-9.1,28.57ZM655.57,1050.21c-3.54,49.06-99.89,146.41-148.94,156.53-34.14,7.08-73.84-11.89-94.32-38.44,1.52-27.31,55.88-22.51,42.99-54.12-6.32-15.17-27.82-12.39-40.71-8.34-14.67,4.8-27.06,26.8-38.94-5.56-12.9-34.64-6.58-71.82,13.15-102.67,14.41-22.51,23.27-19.22,43.5-30.09,38.18-20.48,29.08-26.8,78.9-36.92,12.64-2.78,22.76-16.44,37.17-12.9-4.8,15.93,3.03,20.23,15.17,27.56-6.83,17.45-5.82,38.18-17.45,53.61-8.09,10.88-22.51,15.43-31.1,25.79,10.37-2.78,27.31-12.39,34.64-19.98,15.68-16.44,12.9-42.99,26.55-60.18,2.28,1.52,3.29,2.53,3.54,5.31.5,8.09-5.06,39.2-7.33,48.55-7.33,28.58-21.75,46.28-39.7,68.53,26.3-10.87,43.75-48.8,48.55-75.1,2.02-10.62-.76-53.1,16.94-47.29,9.1,3.03-4.3,21.24-5.31,29.84-3.29,31.61,14.16,45.01-7.84,74.6-6.83,9.1-17.7,16.18-25.03,24.02-1.52,1.77-5.31,4.3-2.78,7.33,1.52,1.52,12.64-7.33,14.41-9.1,21.49-17.7,36.16-34.14,34.64-63.22-1.01-20.23-13.91-62.46,20.99-56.9,5.06.76,6.32,5.31,9.61,6.32,4.3,1.26,12.9-1.27,15.17,2.53,7.33,35.15-5.06,66.25-21.75,96.6-18.97,35.15-50.58,78.9-86.74,98.12-10.62,5.82-68.02,19.98-68.53,27.06-.51,4.8,5.82,1.26,7.59,1.01,23.77-5.56,53.36-13.4,74.09-26.3,44-27.31,75.1-67.01,96.35-114.05,3.79-.51,2.53,5.56,2.53,7.84ZM636.85,922.26c4.55-2.28,15.43-15.68,19.98-9.86,5.56,7.33-12.64,22.51-19.98,9.86ZM696.28,1205.48c-27.56-16.94-34.39-36.67-36.67-68.28-3.29-50.58,15.43-94.32,11.38-144.9-1.52-16.44-9.1-31.61-8.85-48.05,26.3,1.77,57.65,41.98,61.7,66.51,3.04,16.94-4.55,37.17,8.35,51.59,6.58-35.65,1.77-77.13-25.54-103.68-8.85-8.6-20.48-12.39-29.08-20.99,18.97-1.77,32.11,14.67,49.82,18.21l26.05,25.29c-4.55-21.75-22.51-29.59-38.69-39.45-5.06-3.04-7.59-7.59-13.91-10.62-8.35-3.54-34.64-3.54-24.53-18.21,1.52-2.02,4.3-1.77,6.83-2.02,22.25-2.78,50.32,11.13,71.06,20.48,11.13,5.06,18.71,14.41,30.35,17.45-10.62-22-33.63-26.55-53.36-34.64-13.66-5.31-16.44-11.13-34.64-12.39-7.84-.51-20.23,6.58-18.97-5.31.5-5.56,14.92-14.67,9.1-27.82,27.31,6.07,62.97,13.65,85.47,31.1,3.03,2.28,22.76,19.98,23.26,21.5,2.28,6.83-1.26,32.62-3.54,40.46-7.59,28.07-46.28,42.74-36.92,78.14,4.55,17.2,31.36,24.78,46.02,34.14,9.36,6.32,66,51.84,66.25,58.67-12.14,18.46-36.67,24.28-57.91,23.77-3.79,24.02-7.33,47.54-33.13,56.9-29.84,10.87-53.36,8.34-79.91-7.84ZM892.76,1254.28c-14.92,27.56-42.23,31.61-67.27,46.28-26.8,15.68-47.03,34.39-56.64,64.99l-28.58-79.4,5.31-49.82c21.49-6.07,49.56-16.44,61.7-36.41,6.07-10.11,5.82-19.47,10.62-29.59l22.25-.76-61.2,106.97c-7.08,16.94-14.67,38.18-12.14,56.64.25,3.03,1.01,6.58,4.3,3.29,7.08-32.62,19.47-61.45,35.4-90.53,11.89-22,31.36-54.62,46.28-74.09,2.28-3.03,20.23-23.77,22-24.78,2.02-1.52,3.29-2.78,6.32-1.77,4.3,1.01,27.06,22.25,28.07,27.56,4.3,22-5.82,61.45-16.44,81.43ZM804.51,1065.89c-15.93-10.87-49.06-18.97-38.44-45.26,9.1-21.75,29.84-27.06,36.92-54.37,10.37-38.94,2.53-69.54,22.76-111.01,19.22-39.45,40.46-44.76,80.41-57.65,82.69,31.61,179.79,56.64,268.81,41.47,19.73-3.54,32.12-13.15,53.1-1.77l-153.75,50.32c-3.79,1.52-.51,5.31,1.01,5.56,2.02.25,31.86-6.58,36.67-7.84,42.48-10.37,82.94-28.83,124.92-38.94l-105.45,64.99c-69.04,31.61-143.13,57.4-216.71,77.38-35.15,9.61-72.07,13.91-105.7,28.07,2.53,2.28,8.34,1.01,11.63.51,71.06-10.62,168.92-39.2,236.94-63.98,68.53-25.03,125.93-62.21,187.13-100.39,4.8.25,16.44,13.15,13.4,17.95-11.13,4.3-19.72,13.66-30.09,18.97-31.36,15.93-57.91,26.3-85.72,50.07-44.25,37.17-127.45,169.43-135.04,226.07-1.77,14.41,6.83,28.32-14.41,28.07-11.63-.25-38.44-3.79-47.29-10.62-4.8-3.79-6.58-8.35-10.62-11.89-41.47-36.67-84.97-74.35-130.48-105.7ZM960.53,1294.24l-35.66-110.26c6.07,2.02,9.36,7.59,15.43,11.13,6.32,3.54,15.17,6.07,22.25,8.09l2.53,59.93,6.83-1.52c4.55-6.07,2.53-41.47,4.3-51.08,1.77-9.86,8.85-3.03,14.41-3.29,5.56-.25,11.63-4.3,16.94-1.27l14.92,35.91-61.95,52.35ZM1343.89,1224.19c-5.06,14.92-35.4,62.97-47.79,72.32-15.43,11.13-70.55,31.36-89.52,33.13-32.87,3.03-66.25-11.13-99.89-.25-4.8-1.01-32.37-39.7-37.43-47.03-28.07-40.21-59.43-84.97-44.25-136.55,15.68-52.85,92.81-175.75,137.56-207.86,17.7-12.64,38.44-13.91,55.13-22.76,4.05-2.28,28.07-26.55,30.35-24.28l-81.17,124.92c-11.13,21.75-30.35,44.25-32.37,69.03,15.17-7.08,15.68-20.74,23.26-33.63,23.26-40.21,49.82-82.18,79.15-118.09-3.29,14.67-12.14,27.82-17.45,41.98-15.68,41.22-30.09,90.02-40.21,133.27-3.54,13.91-20.99,96.35-15.93,103.43l4.55-3.29c23.26-100.39,46.02-210.65,94.58-302.19,1.52-2.78,11.13-20.74,14.41-17.7,4.05,13.4,1.26,27.31,2.53,40.97,6.32,58.92,26.8,131.5,46.53,187.64,4.55,12.64,26.05,57.15,26.8,64.74.25,2.78-7.33,37.93-8.85,42.23ZM1333.27,1089.66c-11.38-34.14-23.01-76.62-30.6-111.77-5.31-24.28-9.1-48.8-12.39-73.59,21.49,9.61,50.32,27.06,74.85,24.53,10.11-1.01,22.25-10.62,32.11-14.41,20.99-8.09,41.98-12.9,60.94-25.54,11.63,9.36,27.82,21.24,34.64,34.64,7.08,14.67,6.32,32.37,12.64,47.54,6.32,15.17,20.48,28.32,28.32,42.99,11.88,23.26,26.8,72.58,21.24,98.12-2.78,12.9-14.67,10.11-23.27,14.41-39.2,19.22-57.91,57.4-99.38,72.32-15.17,5.31-39.7,6.32-52.09-5.82-14.16-13.66-39.95-81.93-47.03-103.43ZM1485.51,1234.05c-1.77,3.54-19.22,21.49-23.52,25.54-15.17,14.67-33.63,25.54-48.05,41.22-18.21,19.98-27.82,44.76-45.52,64.74-1.01-28.07,3.29-55.63,2.28-83.7-.5-11.13-7.84-72.07-4.55-76.87,12.9,13.65,31.36,15.68,49.06,17.95-5.82,23.01-18.46,44-23.01,67.26-.51,3.03-4.05,4.55,1.77,4.05l32.88-73.08c17.7-5.56,32.37-14.16,47.29-25.03,2.53.25,13.91,32.37,11.38,37.93ZM1586.66,1266.42c-4.3,39.45,12.39,69.54,3.54,112.53-.76,4.05-2.02,13.65-5.56,15.43-8.09-22.51-14.41-47.29-26.55-68.28-13.15-22.76-35.15-41.22-46.78-64.48-11.13-22-14.67-48.8-24.53-71.56-1.26-11.63,30.85-42.48,44.25-42.99,1.52,18.97-2.02,40.46,0,59.17,2.28,22.25,19.22,76.88,32.11,94.83,1.77,2.78,0,5.56,5.82,4.3-5.06-36.67-23.27-71.06-26.55-108.48-.76-9.36-2.02-42.99.25-50.32,2.02-6.83,8.35-7.33,14.16-4.05,13.91,8.34,26.55,35.91,41.22,45.77,12.39,20.23-9.1,57.4-11.38,78.14ZM1871.14,1327.36c-17.7-2.02-77.89-18.71-89.27-31.1-5.06-5.31-10.37-21.24-15.93-28.58-3.54-4.8-17.7-19.47-22.51-22.25-13.91-8.09-29.33-4.8-43.75-7.59-54.12-9.61-100.64-60.18-129.22-104.69l-.51-50.83,4.8-.25c28.83,17.45,62.71,28.32,92.3,43.75,31.61,16.69,72.83,50.32,96.85,76.87,37.17,41.47,61.2,98.88,114.81,122.65.5,4.05-5.06,2.28-7.59,2.02ZM1794.27,1147.82c18.46,37.43,29.08,76.88,50.58,114.55,3.29,5.56,31.1,45.26,29.33,47.29-41.22-27.82-64.48-74.6-96.85-111.27-25.29-28.83-63.98-60.18-97.61-78.39-29.08-15.68-67.52-25.54-94.58-41.47-11.89-7.08-21.24-25.29-22-38.44,4.8-7.84,53.36-3.54,64.99-4.3,6.32-.25,36.16-6.83,38.94-4.55,1.01,4.3-1.77,4.3-3.79,6.32-10.37,9.36-35.91,20.48-24.02,38.18,6.58,9.86,54.12,23.26,67.01,24.28,20.48,1.77,38.94-5.56,58.67-3.03,8.6,17.2,21.24,34.14,29.33,50.83ZM1668.08,1058.05c-3.29-.25-6.58,1.77-5.56-3.29l21.24-16.44,18.97,24.02c-11.88-1.01-22.51-3.29-34.64-4.3ZM1771.76,1080.3c-1.01,4.05-4.55,4.05-7.84,4.55-31.61,4.3-54.87,8.35-85.72-3.54l-17.95-11.13c4.55-9.36,33.38,2.02,41.47,3.03,23.52,3.29,47.03,1.01,70.05,7.08ZM2147.79,1262.38c17.45,27.82,42.99,52.35,71.82,67.52.51,3.54-3.03,2.02-5.56,2.28-95.59,4.8-163.61-7.08-240.23-64.99-21.75-16.44-45.27-38.44-55.13-64.23,23.01,10.62,46.02,11.63,70.81,14.67,42.48,46.28,98.12,80.67,158.81,96.6,1.01-4.55-2.28-5.06-5.31-7.08-9.61-6.57-25.04-10.87-36.41-16.94-38.69-20.74-71.56-44.25-100.9-77.38,22.51-14.16,53.1-51.59,82.44-42.48,10.12,3.29,9.61,15.17,15.68,22.51,3.79,4.8,9.86,6.83,14.16,12.39,12.14,14.41,19.47,40.21,29.84,57.15ZM2191.54,1220.65c-15.17,2.02-25.03-18.21-37.93-24.28-10.37-4.8-23.52-2.78-29.84-5.82-8.09-3.79-4.8-24.78-28.32-34.14-21.24-8.09-26.05-4.3-44.51,5.82-12.14,7.08-50.83,37.43-59.93,38.44-4.05.25-34.14-4.05-39.45-5.06-8.09-1.77-16.69-6.32-25.29-8.09-16.94-4.05-54.88-9.61-68.28-16.44-18.21-9.1-42.48-60.18-55.38-78.14-13.4-18.21-37.93-39.2-60.94-41.73-8.09-.76-16.94,1.26-24.53,0-12.39-2.02-16.94-17.2-25.54-25.54-12.64-12.39-32.37-21.49-35.65-42.48-1.26-7.84,5.82-9.61,9.36-19.22,10.62-29.33,11.13-73.33,3.79-102.92-.5-2.28-11.38-24.78-3.29-21.5,3.54,1.52,9.61,12.14,13.4,15.68,5.82,6.07,15.68,12.64,21.24,18.71,17.45,19.47,27.56,44.25,28.83,70.55h6.83c.76-5.82-2.53-32.87,3.29-33.38,61.7,21.75,121.13,40.46,145.91,107.73,3.79,10.11,9.86,47.54,16.69,50.32,4.55,1.26,5.06-7.84,5.31-10.37,2.02-16.94-1.52-29.33-8.35-44.5-2.28-5.31-18.21-29.84-15.93-32.12,46.53-8.85,94.32,6.83,131.24,34.9,29.33,22.25,47.03,52.6,69.29,80.92.51-10.37-5.31-19.73-10.11-28.58-22.25-40.21-57.4-73.08-100.65-88.76l-58.41-13.91c60.18-13.91,121.63-26.8,183.34-29.33l3.79-3.03c-.25-7.59-40.71-6.07-48.05-5.82-36.41,2.28-86.23,7.08-120.87,17.45-21.5,6.32-41.22,17.45-62.97,22.76-1.01-4.8,2.78-4.8,5.31-7.08,26.55-24.78,78.9-36.41,109.24-57.91l66-26.3c-68.28,9.36-129.47,48.8-190.92,77.63l-7.08-5.56c8.09-17.45,28.32-21.5,40.97-34.14,15.43-15.17,39.7-44,54.62-61.45,49.31-58.16,110-141.61,98.12-221.52,6.83-6.83,39.95,29.84,44,37.17,15.17,26.3,10.87,64.48,35.15,89.52,18.71,19.22,56.14,19.22,68.78,36.16,13.66,18.21,13.15,42.48,22.51,62.21,3.54,7.33,9.86,12.39,12.14,19.98-3.29,2.78-42.23-4.05-50.07-4.55-34.39-1.77-93.31,5.06-125.93,16.69-7.59,2.78-17.2,9.61-24.53,13.4,18.21.76,36.67-8.09,55.13-11.63,49.31-8.85,99.63-6.57,148.69-.5,25.04,3.03,49.31,34.9,48.05,59.17-1.52,26.55-10.37,13.66-25.03,9.36-26.05-7.84-55.13-9.1-81.93-12.9l6.58,5.56,91.03,26.3c-.51,8.85,11.38,22.76,11.38,29.59,0,5.82-7.84,13.15-9.61,19.22-1.77,6.58-.51,12.39-1.77,17.95-5.82,24.02-51.08,41.73-54.87,54.62-6.07,19.72,21.49,47.79,21.49,68.02-14.67,19.22-17.7,49.06-45.52,52.85ZM2254.5,1155.66c-1.77-.5-2.53-1.77-3.54-3.03-2.02-3.03-15.17-31.86-16.94-36.67-8.85-25.79,8.6-21.24,24.53-35.65,2.78-2.53,14.41-15.68,16.69-18.97,6.83-9.36,6.83-18.46,12.39-27.82,4.8,7.33,15.43,9.86,20.99,14.67,2.78,2.53,17.2,20.23,19.98,24.28,4.3,5.82,19.22,29.84,17.7,35.15-27.31,26.55-49.82,51.84-91.79,48.05ZM2398.89,1303.09c-4.8,11.88-10.12,26.55-18.97,35.65,3.29-13.91,3.03-29.08,2.28-43.49-.5-18.71-2.28-43.5-4.55-62.21-.76-8.85-4.3-33.88-13.4-17.95,3.79,24.53,6.57,49.31,8.85,73.84.25,2.53,2.02,8.09-2.02,7.59-4.8-30.35-23.52-61.7-43.49-84.71-4.3-5.06-48.05-46.53-43.5-51.33,8.09,1.26,17.95-5.82,25.03-4.05,3.79,1.01,9.1,6.83,13.66,8.85,33.13,15.17,57.4,15.93,92.81,6.32,11.89,45.52.76,89.27-16.69,131.5ZM2406.73,1161.73c-30.6,6.83-68.02,7.59-93.56-12.39l41.22-33.38c14.41,27.06,40.46,37.93,70.3,37.93l-17.95,7.84ZM2496.25,1151.36c1.26,2.02,37.17,18.71,45.26,24.78,10.12,7.59,25.79,22.76,34.64,32.12,6.07,6.58,11.38,14.92,17.7,21.24-53.36-25.79-117.08-22.5-164.87-61.2l23.52-18.71c28.07-35.4,40.21-80.92,45.52-124.92,6.58,2.53,4.05,11.63,5.56,17.95,13.66,59.17,36.41,110,93.56,138.07l10.12,42.23c-29.84-26.3-63.47-68.53-104.18-77.63-5.31-1.01-10.87-.51-6.83,6.07ZM2639.88,1177.91c-45.77-5.82-66-19.22-93.56-55.38-10.87-14.16-20.23-35.91-23.77-53.36l18.97,31.1c13.4,12.39,28.83,26.05,48.55,21.75,8.34-1.77,14.67-11.13,24.53-10.11,14.92,1.52,38.18,26.05,54.62,32.37,6.07,2.28,15.68,2.28,17.95,3.29.51.51,5.56,10.12,8.09,12.9,4.05,5.06,10.87,5.56,10.12,11.13-22.25,9.86-41.98,9.61-65.5,6.32ZM2731.17,1147.32c-22.25,33.13-27.31-2.02-40.71-8.85-6.07-3.03-12.39-2.28-19.47-4.8-22-8.6-39.95-36.67-66.5-30.6-7.59,1.77-13.15,10.62-22.76,10.62-31.86.5-62.71-62.46-69.03-89.01-3.79-15.43-2.28-30.09-8.09-44.51h-6.32c-8.6,27.06-10.37,56.14-17.7,83.7-4.05,15.68-18.21,58.67-29.33,68.78-21.5,20.48-78.14,7.84-89.27-19.98-5.82-14.67-9.86-25.54-20.23-39.7-3.54-4.8-21.24-19.47-17.45-23.77,2.53-1.01,4.8,2.02,5.56,2.02,15.93,0,35.91,1.77,51.33,0,59.68-6.32,79.4-64.48,94.58-113.54,15.68,3.29,25.54,20.23,42.23,8.85,3.29,21.75,13.15,43.49,23.52,62.46,6.32,11.63,13.4,28.07,25.54,33.38,4.8-6.32-13.15-31.1-16.69-37.68-10.87-21.5-24.28-44.76-25.54-69.29l8.35,3.03c14.16,25.54,27.31,55.38,44.76,78.9,5.82,8.09,11.89,18.46,22.76,20.48l-60.18-102.41c2.02-2.02,23.77,16.18,26.8,18.97,9.36,8.6,36.41,43.49,43.24,45.77,3.29.76,4.05-.25,3.29-3.29-3.79-16.94-33.38-42.23-46.53-53.61-8.6-7.33-23.26-10.62-14.41-23.52,30.85,8.6,59.43,21.24,86.99,37.68,30.85,18.21,67.52,44.5,82.94,77.38,13.91,29.84,28.07,83.45,8.34,112.53ZM2979.75,1105.34c-38.69-11.63-93.31-14.67-132.25-4.3-32.12,8.34-57.15,27.82-93.06,16.94-1.77-21.75-4.3-43.49-11.13-64.48,11.63,2.02,23.26-1.77,34.39-2.28,54.87-2.53,113.54,7.33,163.86,29.08,6.83-6.83-34.9-24.02-38.44-25.29-34.64-12.14-76.37-19.98-113.04-19.22.76-3.79,6.32-3.79,9.86-6.83,8.6-6.83,30.6-34.14,36.92-36.67,13.65-6.07,76.11,23.26,90.53,31.86,35.91,21.5,60.69,55.89,80.92,91.79-2.28,1.77-23.77-9.1-28.58-10.62Z"/>
        <path class="cls-1" d="M1528.81,632.39c-10.84,1.04-21.06-5.77-30.46-10.74-2.93-1.55-32.17-18.1-27.46-22.65,13.04,6.34,26.79,12.45,39.37,19.66,6.28,3.6,14.85,7.64,18.56,13.73Z"/>
        <path class="cls-1" d="M971.74,643.53c-15.89-6.28-32.22-24.51-43.48-37.83-5.09-6.02-25.91-29.16-21.11-35.68l7.57,4.66,57.03,68.85Z"/>
        <path class="cls-1" d="M416.91,841.84c-14.72-1.02-28.39-22.41-32.87-35.06-1.57-4.44-4.86-8.09.56-11.66l32.31,46.73Z"/>
        <path class="cls-1" d="M2457.96,904.25c1.71,10.39-5.32,18.16-10.19,26.55-3.33,5.74-26.14,39-30.97,38.06-2.92-.57-4.38-5.67-1.67-8.29l42.84-56.31Z"/>
        <path class="cls-1" d="M2395.59,908.73c2.92,2.31-44.88,50.85-51.24,44.53-1.13-5.6.74-5.6,3.67-8.56,6.21-6.28,18.83-14.19,26.34-20.45,3.75-3.13,16.48-19.28,21.23-15.52Z"/>
        <path class="cls-1" d="M2415.65,926.56c2.87,2.14-29.37,27.6-33.4,28.94-4.43-5.6,26.98-33.74,33.4-28.94Z"/>
        <path class="cls-1" d="M1597.39,303.21c10.5-1.2,37.35,4.77,45.93,10.8,6.56,4.61,4.22,11.39-3.65,10.53-7.88-.86-24.23-9.67-34.98-12.01-2.24-.49-26.99-1.09-17.99-6.6,1.75-1.07,8.25-2.44,10.69-2.72Z"/>
        <path class="cls-1" d="M1646.89,302.62c-11.75,1.14-21.13-10.02-32.58-11.04-7.82-.7-15.22,3.45-23.12,2.13l-.09-7.51c.75-3.16,20.96-6.12,25.14-5.43,4.03.67,38.19,14.74,30.66,21.85Z"/>
        <path class="cls-1" d="M617.42,685.89c2.04,2,5.29,33.72,7.35,40.58,4.14,13.8,16.85,27.18,20.11,40.1,2.62,10.41-4.06,11.68-8.47,1.74-8.51-19.17-22.99-54.45-23.49-74.57-.12-4.71-1.82-9.24,4.5-7.85Z"/>
        <path class="cls-1" d="M640.85,612.4c5.86,3.82,2.1,10.51-.02,15.53-4.09,9.65-12.12,14.27-16.36,21.51-3.51,5.99-3.06,13.61-8.12,18.57-3.77-2.6-3.55-5.91-3.54-9.99.02-12.63,20.56-34.35,28.05-45.62Z"/>
        <path class="cls-1" d="M2317.59,1098.12c3.01,6.77-9.79,32.62-16.66,31.18-3.06-.64-3.15-3.84-2.41-6.77.8-3.17,14.61-29.53,19.08-24.4Z"/>
        <path class="cls-1" d="M2277.51,1131.52c-1-4.13,8.83-36.98,13.33-33.41,5.67,6.37-5.32,41.02-13.33,33.41Z"/>
      </g>
      <g>
        <path class="cls-1" d="M1047.43,2993.38l46.82-117.47h20.02l46.98,117.47h-18.2l-40.52-107.2h3.63l-40.52,107.2h-18.2ZM1072.56,2958.63v-14.72h62.54v14.72h-62.54Z"/>
        <path class="cls-1" d="M1264.31,2995.7c-9.26,0-17.84-1.88-25.72-5.63-7.89-3.75-14.21-8.87-18.95-15.38l13.24-10.74c3.53,4.94,7.8,9.01,12.83,12.15,5.01,3.14,11.27,4.72,18.77,4.72s14.04-1.65,18.62-4.96c4.57-3.31,6.87-8.1,6.87-14.4,0-3.31-.64-6.05-1.9-8.2-1.27-2.15-3.15-3.98-5.63-5.53-2.48-1.56-5.37-2.94-8.68-4.22-3.31-1.26-7.01-2.44-11.09-3.56-4.63-1.43-9.1-2.94-13.4-4.54-4.31-1.61-8.22-3.65-11.75-6.12-3.53-2.49-6.33-5.63-8.43-9.43-2.1-3.8-3.14-8.47-3.14-13.98,0-9.93,3.56-17.81,10.67-23.66,7.11-5.85,17.06-8.77,29.86-8.77,7.94,0,15.47,1.43,22.58,4.3s13.1,6.96,17.95,12.25l-12.9,11.58c-7.06-8.72-16.32-13.06-27.79-13.06-7.06,0-12.72,1.46-16.97,4.37-4.25,2.94-6.36,6.99-6.36,12.17,0,3.95,1.12,7.14,3.38,9.51,2.26,2.37,5.38,4.3,9.35,5.78,3.98,1.51,8.5,3.01,13.57,4.54,4.3,1.11,8.66,2.52,13.06,4.22,4.42,1.73,8.47,3.93,12.16,6.62,3.69,2.72,6.7,6.05,9.03,10.03,2.31,3.95,3.47,8.87,3.47,14.72,0,6.94-1.72,13.06-5.12,18.35-3.42,5.31-8.31,9.43-14.64,12.42-6.35,2.96-13.98,4.47-22.92,4.47Z"/>
        <path class="cls-1" d="M1407.59,2993.38v-102.58h-40.38v-14.89h97.45v14.89h-40.36v102.58h-16.71Z"/>
        <path class="cls-1" d="M1519.09,2993.38l46.82-117.47h20.02l46.98,117.47h-18.2l-40.52-107.2h3.63l-40.52,107.2h-18.2ZM1544.23,2958.63v-14.72h62.54v14.72h-62.54Z"/>
        <path class="cls-1" d="M1698.42,2993.38v-117.47h21.35l65.34,101.42-4.14-1.31v-100.11h16.72v117.47h-20.84l-65.02-100.93,3.14.84v100.09h-16.55Z"/>
        <path class="cls-1" d="M1863.21,2993.38l46.82-117.47h20.02l46.98,117.47h-18.2l-40.52-107.2h3.63l-40.52,107.2h-18.2ZM1888.35,2958.63v-14.72h62.54v14.72h-62.54Z"/>
      </g>
    </g>
  </g>
</svg>