<svg xmlns="http://www.w3.org/2000/svg" xmlns:xlink="http://www.w3.org/1999/xlink" width="442" zoomAndPan="magnify" viewBox="0 0 331.5 138.749998" height="185" preserveAspectRatio="xMidYMid meet" version="1.0"><defs><g/></defs><g fill="#073e16" fill-opacity="1"><g transform="translate(17.372683, 65.521522)"><g><path d="M 11.796875 -42.015625 C 13.003906 -42.015625 14.046875 -41.863281 14.921875 -41.5625 C 15.804688 -41.257812 16.8125 -40.847656 17.9375 -40.328125 C 19.132812 -39.722656 19.976562 -39.421875 20.46875 -39.421875 C 21.03125 -39.421875 21.457031 -39.617188 21.75 -40.015625 C 22.050781 -40.421875 22.285156 -41.085938 22.453125 -42.015625 L 23.53125 -42.015625 L 23.890625 -28.65625 L 22.8125 -28.65625 C 22.207031 -32.019531 20.992188 -34.710938 19.171875 -36.734375 C 17.347656 -38.765625 15.226562 -39.78125 12.8125 -39.78125 C 11.132812 -39.78125 9.710938 -39.207031 8.546875 -38.0625 C 7.378906 -36.925781 6.796875 -35.492188 6.796875 -33.765625 C 6.796875 -32.523438 7.125 -31.441406 7.78125 -30.515625 C 8.445312 -29.585938 9.28125 -28.78125 10.28125 -28.09375 C 11.289062 -27.414062 12.695312 -26.597656 14.5 -25.640625 C 16.832031 -24.398438 18.738281 -23.242188 20.21875 -22.171875 C 21.707031 -21.109375 22.972656 -19.691406 24.015625 -17.921875 C 25.054688 -16.160156 25.578125 -14 25.578125 -11.4375 C 25.578125 -9.070312 25.078125 -6.953125 24.078125 -5.078125 C 23.078125 -3.210938 21.691406 -1.75 19.921875 -0.6875 C 18.160156 0.375 16.195312 0.90625 14.03125 0.90625 C 12.863281 0.90625 11.804688 0.773438 10.859375 0.515625 C 9.921875 0.253906 8.769531 -0.132812 7.40625 -0.65625 C 6.082031 -1.21875 5.160156 -1.5 4.640625 -1.5 C 3.554688 -1.5 2.832031 -0.695312 2.46875 0.90625 L 1.4375 0.90625 L 1.4375 -14.328125 L 2.53125 -14.328125 C 2.882812 -11.796875 3.582031 -9.546875 4.625 -7.578125 C 5.675781 -5.617188 6.972656 -4.085938 8.515625 -2.984375 C 10.054688 -1.878906 11.710938 -1.328125 13.484375 -1.328125 C 15.242188 -1.328125 16.707031 -1.96875 17.875 -3.25 C 19.039062 -4.53125 19.625 -6.175781 19.625 -8.1875 C 19.625 -9.59375 19.378906 -10.707031 18.890625 -11.53125 C 18.410156 -12.351562 17.628906 -13.1875 16.546875 -14.03125 C 15.785156 -14.625 14.082031 -15.722656 11.4375 -17.328125 L 10.109375 -18.109375 C 7.296875 -19.796875 5.140625 -21.550781 3.640625 -23.375 C 2.140625 -25.207031 1.390625 -27.609375 1.390625 -30.578125 C 1.390625 -32.828125 1.828125 -34.8125 2.703125 -36.53125 C 3.585938 -38.257812 4.820312 -39.601562 6.40625 -40.5625 C 7.988281 -41.53125 9.785156 -42.015625 11.796875 -42.015625 Z M 11.796875 -42.015625 "/></g></g></g><g fill="#073e16" fill-opacity="1"><g transform="translate(44.331588, 65.521522)"><g><path d="M 17.21875 -42.015625 L 27.453125 -7.765625 C 28.003906 -5.960938 28.453125 -4.640625 28.796875 -3.796875 C 29.140625 -2.953125 29.519531 -2.304688 29.9375 -1.859375 C 30.363281 -1.421875 30.9375 -1.160156 31.65625 -1.078125 L 31.65625 0 L 17.21875 0 L 17.21875 -1.078125 C 18.300781 -1.078125 19.070312 -1.195312 19.53125 -1.4375 C 19.988281 -1.6875 20.21875 -2.109375 20.21875 -2.703125 C 20.21875 -3.066406 20.15625 -3.550781 20.03125 -4.15625 C 19.914062 -4.757812 19.800781 -5.257812 19.6875 -5.65625 L 18.484375 -9.75 L 8.25 -9.75 L 6.921875 -5.234375 C 6.597656 -4.234375 6.4375 -3.507812 6.4375 -3.0625 C 6.4375 -2.382812 6.675781 -1.882812 7.15625 -1.5625 C 7.644531 -1.238281 8.410156 -1.078125 9.453125 -1.078125 L 9.453125 0 L 0.96875 0 L 0.96875 -1.078125 C 1.6875 -1.203125 2.273438 -1.453125 2.734375 -1.828125 C 3.203125 -2.210938 3.613281 -2.828125 3.96875 -3.671875 C 4.332031 -4.515625 4.796875 -5.816406 5.359375 -7.578125 L 16.125 -42.015625 Z M 17.8125 -11.984375 L 13.546875 -26.234375 L 13.421875 -26.234375 L 8.96875 -11.984375 Z M 17.8125 -11.984375 "/></g></g></g><g fill="#073e16" fill-opacity="1"><g transform="translate(70.928245, 65.521522)"><g><path d="M 15.34375 -39.96875 L 15.046875 -39.96875 C 14.085938 -39.96875 13.394531 -39.847656 12.96875 -39.609375 C 12.550781 -39.367188 12.34375 -38.925781 12.34375 -38.28125 C 12.34375 -37.914062 12.429688 -37.375 12.609375 -36.65625 C 12.785156 -35.9375 13.054688 -35.015625 13.421875 -33.890625 L 19.015625 -14.6875 L 19.140625 -14.6875 L 24.984375 -33.46875 C 25.222656 -34.269531 25.453125 -35.097656 25.671875 -35.953125 C 25.890625 -36.816406 26 -37.570312 26 -38.21875 C 26 -38.863281 25.785156 -39.316406 25.359375 -39.578125 C 24.941406 -39.835938 24.210938 -39.96875 23.171875 -39.96875 L 23.171875 -41.046875 L 31.59375 -41.046875 L 31.59375 -39.96875 C 30.675781 -39.800781 29.945312 -39.40625 29.40625 -38.78125 C 28.863281 -38.164062 28.289062 -36.875 27.6875 -34.90625 L 16.4375 1.140625 L 15.34375 1.140625 L 4.515625 -35.625 C 4.078125 -37.113281 3.625 -38.15625 3.15625 -38.75 C 2.695312 -39.351562 1.96875 -39.757812 0.96875 -39.96875 L 0.96875 -41.046875 L 15.34375 -41.046875 Z M 15.34375 -39.96875 "/></g></g></g><g fill="#073e16" fill-opacity="1"><g transform="translate(100.534314, 65.521522)"><g><path d="M 19.375 -42.015625 C 22.3125 -42.015625 25.113281 -41.28125 27.78125 -39.8125 C 30.445312 -38.351562 32.648438 -36.003906 34.390625 -32.765625 C 36.140625 -29.535156 37.015625 -25.414062 37.015625 -20.40625 C 37.015625 -15.34375 36.109375 -11.21875 34.296875 -8.03125 C 32.492188 -4.84375 30.257812 -2.554688 27.59375 -1.171875 C 24.925781 0.210938 22.226562 0.90625 19.5 0.90625 C 16.65625 0.90625 13.894531 0.210938 11.21875 -1.171875 C 8.550781 -2.554688 6.320312 -4.832031 4.53125 -8 C 2.75 -11.175781 1.859375 -15.3125 1.859375 -20.40625 C 1.859375 -25.625 2.769531 -29.847656 4.59375 -33.078125 C 6.425781 -36.304688 8.675781 -38.601562 11.34375 -39.96875 C 14.007812 -41.332031 16.6875 -42.015625 19.375 -42.015625 Z M 11.140625 -20.765625 C 11.140625 -14.585938 11.6875 -9.800781 12.78125 -6.40625 C 13.882812 -3.019531 16.101562 -1.328125 19.4375 -1.328125 C 22.6875 -1.328125 24.882812 -2.96875 26.03125 -6.25 C 27.175781 -9.539062 27.75 -14.421875 27.75 -20.890625 C 27.75 -27.304688 27.15625 -32.054688 25.96875 -35.140625 C 24.789062 -38.234375 22.59375 -39.78125 19.375 -39.78125 C 16.96875 -39.78125 15.148438 -38.796875 13.921875 -36.828125 C 12.703125 -34.867188 11.929688 -32.5625 11.609375 -29.90625 C 11.296875 -27.257812 11.140625 -24.210938 11.140625 -20.765625 Z M 11.140625 -20.765625 "/></g></g></g><g fill="#073e16" fill-opacity="1"><g transform="translate(136.69964, 65.521522)"><g><path d="M 17.21875 -42.015625 L 27.453125 -7.765625 C 28.003906 -5.960938 28.453125 -4.640625 28.796875 -3.796875 C 29.140625 -2.953125 29.519531 -2.304688 29.9375 -1.859375 C 30.363281 -1.421875 30.9375 -1.160156 31.65625 -1.078125 L 31.65625 0 L 17.21875 0 L 17.21875 -1.078125 C 18.300781 -1.078125 19.070312 -1.195312 19.53125 -1.4375 C 19.988281 -1.6875 20.21875 -2.109375 20.21875 -2.703125 C 20.21875 -3.066406 20.15625 -3.550781 20.03125 -4.15625 C 19.914062 -4.757812 19.800781 -5.257812 19.6875 -5.65625 L 18.484375 -9.75 L 8.25 -9.75 L 6.921875 -5.234375 C 6.597656 -4.234375 6.4375 -3.507812 6.4375 -3.0625 C 6.4375 -2.382812 6.675781 -1.882812 7.15625 -1.5625 C 7.644531 -1.238281 8.410156 -1.078125 9.453125 -1.078125 L 9.453125 0 L 0.96875 0 L 0.96875 -1.078125 C 1.6875 -1.203125 2.273438 -1.453125 2.734375 -1.828125 C 3.203125 -2.210938 3.613281 -2.828125 3.96875 -3.671875 C 4.332031 -4.515625 4.796875 -5.816406 5.359375 -7.578125 L 16.125 -42.015625 Z M 17.8125 -11.984375 L 13.546875 -26.234375 L 13.421875 -26.234375 L 8.96875 -11.984375 Z M 17.8125 -11.984375 "/></g></g></g><g fill="#073e16" fill-opacity="1"><g transform="translate(169.315094, 65.521522)"><g/></g></g><g fill="#073e16" fill-opacity="1"><g transform="translate(180.748563, 65.521522)"><g><path d="M 18.78125 -42.015625 C 20.257812 -42.015625 21.507812 -41.84375 22.53125 -41.5 C 23.5625 -41.15625 24.617188 -40.703125 25.703125 -40.140625 C 26.898438 -39.503906 27.84375 -39.1875 28.53125 -39.1875 C 28.96875 -39.1875 29.304688 -39.382812 29.546875 -39.78125 C 29.785156 -40.1875 29.988281 -40.929688 30.15625 -42.015625 L 31.234375 -42.015625 L 31.234375 -28.234375 L 30.15625 -28.234375 C 29.914062 -30.359375 29.332031 -32.269531 28.40625 -33.96875 C 27.488281 -35.675781 26.347656 -37.007812 24.984375 -37.96875 C 23.617188 -38.9375 22.148438 -39.421875 20.578125 -39.421875 C 18.617188 -39.421875 16.894531 -38.695312 15.40625 -37.25 C 14 -35.851562 12.90625 -33.859375 12.125 -31.265625 C 11.34375 -28.679688 10.953125 -25.101562 10.953125 -20.53125 C 10.953125 -17.675781 11.140625 -14.851562 11.515625 -12.0625 C 11.898438 -9.28125 12.773438 -6.925781 14.140625 -5 C 14.867188 -3.988281 15.753906 -3.191406 16.796875 -2.609375 C 17.835938 -2.035156 19 -1.75 20.28125 -1.75 C 22.363281 -1.75 24.175781 -2.300781 25.71875 -3.40625 C 27.269531 -4.507812 29.109375 -6.363281 31.234375 -8.96875 L 31.234375 -5.890625 C 29.753906 -3.722656 27.910156 -2.046875 25.703125 -0.859375 C 23.492188 0.316406 21.101562 0.90625 18.53125 0.90625 C 15.25 0.90625 12.332031 0.0351562 9.78125 -1.703125 C 7.226562 -3.453125 5.238281 -5.878906 3.8125 -8.984375 C 2.394531 -12.097656 1.6875 -15.664062 1.6875 -19.6875 C 1.6875 -23.851562 2.4375 -27.640625 3.9375 -31.046875 C 5.445312 -34.460938 7.503906 -37.144531 10.109375 -39.09375 C 12.722656 -41.039062 15.613281 -42.015625 18.78125 -42.015625 Z M 18.78125 -42.015625 "/></g></g></g><g fill="#073e16" fill-opacity="1"><g transform="translate(213.364018, 65.521522)"><g><path d="M 18.90625 -39.96875 L 18.109375 -39.96875 C 16.628906 -39.96875 15.554688 -39.707031 14.890625 -39.1875 C 14.234375 -38.664062 13.90625 -37.679688 13.90625 -36.234375 L 13.90625 -5.65625 C 13.90625 -4.25 14.164062 -3.328125 14.6875 -2.890625 C 15.207031 -2.453125 16.03125 -2.234375 17.15625 -2.234375 C 19.71875 -2.234375 21.78125 -2.539062 23.34375 -3.15625 C 24.914062 -3.78125 26.253906 -4.9375 27.359375 -6.625 C 28.460938 -8.3125 29.453125 -10.796875 30.328125 -14.078125 L 31.421875 -14.078125 L 29.90625 0 L 0.96875 0 L 0.96875 -1.078125 C 2.6875 -1.117188 3.882812 -1.398438 4.5625 -1.921875 C 5.25 -2.441406 5.59375 -3.503906 5.59375 -5.109375 L 5.59375 -36.171875 C 5.59375 -37.578125 5.257812 -38.5625 4.59375 -39.125 C 3.9375 -39.6875 2.96875 -39.96875 1.6875 -39.96875 L 0.96875 -39.96875 L 0.96875 -41.046875 L 18.90625 -41.046875 Z M 18.90625 -39.96875 "/></g></g></g><g fill="#073e16" fill-opacity="1"><g transform="translate(244.896089, 65.521522)"><g><path d="M 16.3125 -39.96875 C 13.976562 -39.96875 12.8125 -38.722656 12.8125 -36.234375 L 12.8125 -10.046875 C 12.8125 -7.117188 13.472656 -5.019531 14.796875 -3.75 C 16.128906 -2.488281 17.976562 -1.859375 20.34375 -1.859375 C 23.15625 -1.859375 25.320312 -2.625 26.84375 -4.15625 C 27.601562 -4.914062 28.132812 -6.003906 28.4375 -7.421875 C 28.738281 -8.847656 28.890625 -10.285156 28.890625 -11.734375 L 28.890625 -34.25 C 28.890625 -35.8125 28.78125 -37.003906 28.5625 -37.828125 C 28.34375 -38.648438 28 -39.203125 27.53125 -39.484375 C 27.070312 -39.765625 26.421875 -39.925781 25.578125 -39.96875 L 25.578125 -41.046875 L 34.671875 -41.046875 L 34.671875 -39.96875 C 33.378906 -39.96875 32.460938 -39.644531 31.921875 -39 C 31.378906 -38.351562 31.109375 -37.367188 31.109375 -36.046875 L 31.109375 -10.78125 C 31.109375 -6.925781 29.984375 -4.015625 27.734375 -2.046875 C 25.492188 -0.078125 22.207031 0.90625 17.875 0.90625 C 13.414062 0.90625 10.070312 -0.101562 7.84375 -2.125 C 5.625 -4.15625 4.515625 -6.816406 4.515625 -10.109375 L 4.515625 -36.109375 C 4.515625 -37.515625 4.234375 -38.488281 3.671875 -39.03125 C 3.109375 -39.570312 2.242188 -39.882812 1.078125 -39.96875 L 1.078125 -41.046875 L 16.25 -41.046875 Z M 16.3125 -39.96875 "/></g></g></g><g fill="#073e16" fill-opacity="1"><g transform="translate(280.640709, 65.521522)"><g><path d="M 29.734375 -31 C 29.734375 -25.625 25.984375 -22.515625 18.484375 -21.671875 L 18.484375 -21.546875 L 18.53125 -21.546875 C 22.863281 -21.179688 26.09375 -20.109375 28.21875 -18.328125 C 30.351562 -16.546875 31.421875 -14.148438 31.421875 -11.140625 C 31.421875 -9.003906 30.859375 -7.09375 29.734375 -5.40625 C 28.609375 -3.726562 26.992188 -2.40625 24.890625 -1.4375 C 22.785156 -0.476562 20.304688 0 17.453125 0 L 0.96875 0 L 0.96875 -1.078125 C 2.363281 -1.078125 3.351562 -1.390625 3.9375 -2.015625 C 4.519531 -2.640625 4.8125 -3.734375 4.8125 -5.296875 L 4.8125 -35.984375 C 4.8125 -37.429688 4.519531 -38.457031 3.9375 -39.0625 C 3.351562 -39.664062 2.363281 -39.96875 0.96875 -39.96875 L 0.96875 -41.046875 L 14.6875 -41.046875 C 19.21875 -41.046875 22.859375 -40.203125 25.609375 -38.515625 C 28.359375 -36.828125 29.734375 -34.320312 29.734375 -31 Z M 14.390625 -22.453125 C 16.554688 -22.453125 18.207031 -23.0625 19.34375 -24.28125 C 20.488281 -25.507812 21.0625 -27.609375 21.0625 -30.578125 C 21.0625 -33.585938 20.488281 -35.703125 19.34375 -36.921875 C 18.207031 -38.148438 16.332031 -38.785156 13.71875 -38.828125 L 13.125 -38.828125 L 13.125 -22.453125 Z M 15.890625 -2.234375 C 17.929688 -2.234375 19.484375 -2.972656 20.546875 -4.453125 C 21.617188 -5.941406 22.15625 -8.066406 22.15625 -10.828125 C 22.15625 -17.085938 19.425781 -20.21875 13.96875 -20.21875 L 13.125 -20.21875 L 13.125 -5.953125 C 13.125 -4.429688 13.332031 -3.429688 13.75 -2.953125 C 14.175781 -2.472656 14.890625 -2.234375 15.890625 -2.234375 Z M 15.890625 -2.234375 "/></g></g></g><g fill="#073e16" fill-opacity="1"><g transform="translate(107.044754, 115.493073)"><g><path d="M 15.65625 -17.71875 L 15.0625 -17.71875 C 14.925781 -18.726562 14.726562 -19.492188 14.46875 -20.015625 C 14.21875 -20.535156 13.847656 -20.890625 13.359375 -21.078125 C 12.878906 -21.265625 12.1875 -21.359375 11.28125 -21.359375 L 6.5 -21.359375 L 6.5 -12.5 L 10.21875 -12.5 C 11.082031 -12.5 11.734375 -12.625 12.171875 -12.875 C 12.617188 -13.132812 12.910156 -13.5 13.046875 -13.96875 C 13.191406 -14.445312 13.265625 -15.085938 13.265625 -15.890625 L 13.828125 -15.890625 L 13.828125 -8 L 13.265625 -8 C 13.265625 -9.125 13.097656 -9.945312 12.765625 -10.46875 C 12.441406 -10.988281 11.78125 -11.25 10.78125 -11.25 L 6.5 -11.25 L 6.5 -2.984375 C 6.5 -2.296875 6.59375 -1.835938 6.78125 -1.609375 C 6.96875 -1.378906 7.363281 -1.265625 7.96875 -1.265625 L 11.484375 -1.265625 C 12.890625 -1.265625 13.960938 -1.644531 14.703125 -2.40625 C 15.453125 -3.164062 16.082031 -4.300781 16.59375 -5.8125 L 17.15625 -5.640625 L 15.421875 0 L 0.5 0 L 0.5 -0.5625 C 1.289062 -0.5625 1.878906 -0.617188 2.265625 -0.734375 C 2.660156 -0.859375 2.945312 -1.117188 3.125 -1.515625 C 3.300781 -1.921875 3.390625 -2.554688 3.390625 -3.421875 L 3.390625 -19.265625 C 3.390625 -20.066406 3.3125 -20.660156 3.15625 -21.046875 C 3 -21.429688 2.738281 -21.695312 2.375 -21.84375 C 2.007812 -21.988281 1.472656 -22.0625 0.765625 -22.0625 L 0.5 -22.0625 L 0.5 -22.625 L 15.328125 -22.625 Z M 15.65625 -17.71875 "/></g></g></g><g fill="#073e16" fill-opacity="1"><g transform="translate(125.020617, 115.493073)"><g><path d="M 6.53125 -23.125 C 7.238281 -23.125 7.859375 -23.050781 8.390625 -22.90625 C 8.921875 -22.757812 9.460938 -22.566406 10.015625 -22.328125 C 10.503906 -22.109375 10.835938 -22 11.015625 -22 C 11.585938 -22 11.984375 -22.375 12.203125 -23.125 L 12.765625 -23.125 L 12.765625 -15.71875 L 12.203125 -15.71875 C 12.140625 -17.09375 11.816406 -18.242188 11.234375 -19.171875 C 10.660156 -20.097656 9.976562 -20.773438 9.1875 -21.203125 C 8.394531 -21.640625 7.617188 -21.859375 6.859375 -21.859375 C 5.929688 -21.859375 5.148438 -21.578125 4.515625 -21.015625 C 3.890625 -20.453125 3.578125 -19.738281 3.578125 -18.875 C 3.578125 -18.082031 3.773438 -17.363281 4.171875 -16.71875 C 4.578125 -16.070312 5.144531 -15.453125 5.875 -14.859375 C 6.15625 -14.617188 6.941406 -14.066406 8.234375 -13.203125 C 9.460938 -12.359375 10.425781 -11.648438 11.125 -11.078125 C 11.820312 -10.503906 12.40625 -9.851562 12.875 -9.125 C 13.175781 -8.632812 13.414062 -8.078125 13.59375 -7.453125 C 13.769531 -6.835938 13.859375 -6.242188 13.859375 -5.671875 C 13.859375 -4.523438 13.582031 -3.476562 13.03125 -2.53125 C 12.476562 -1.59375 11.726562 -0.851562 10.78125 -0.3125 C 9.832031 0.226562 8.78125 0.5 7.625 0.5 C 7.007812 0.5 6.46875 0.429688 6 0.296875 C 5.539062 0.160156 5.019531 -0.0234375 4.4375 -0.265625 C 3.78125 -0.554688 3.304688 -0.703125 3.015625 -0.703125 C 2.359375 -0.703125 1.960938 -0.3125 1.828125 0.46875 L 1.1875 0.46875 L 1.1875 -7.125 L 1.828125 -7.125 C 1.890625 -5.738281 2.195312 -4.566406 2.75 -3.609375 C 3.300781 -2.660156 3.992188 -1.945312 4.828125 -1.46875 C 5.660156 -1 6.515625 -0.765625 7.390625 -0.765625 C 8.410156 -0.765625 9.242188 -1.101562 9.890625 -1.78125 C 10.546875 -2.46875 10.875 -3.351562 10.875 -4.4375 C 10.875 -5.789062 10.359375 -6.96875 9.328125 -7.96875 C 8.765625 -8.488281 7.8125 -9.21875 6.46875 -10.15625 C 5.050781 -11.144531 4.066406 -11.894531 3.515625 -12.40625 C 2.722656 -13.113281 2.109375 -13.867188 1.671875 -14.671875 C 1.242188 -15.484375 1.03125 -16.410156 1.03125 -17.453125 C 1.03125 -19.109375 1.535156 -20.46875 2.546875 -21.53125 C 3.566406 -22.59375 4.894531 -23.125 6.53125 -23.125 Z M 6.53125 -23.125 "/></g></g></g><g fill="#073e16" fill-opacity="1"><g transform="translate(139.878896, 115.493073)"><g><path d="M 17.25 -17.484375 L 16.71875 -17.484375 C 16.675781 -18.878906 16.382812 -19.875 15.84375 -20.46875 C 15.300781 -21.0625 14.375 -21.359375 13.0625 -21.359375 L 10.546875 -21.359375 L 10.546875 -3.421875 C 10.546875 -2.554688 10.640625 -1.921875 10.828125 -1.515625 C 11.015625 -1.117188 11.300781 -0.863281 11.6875 -0.75 C 12.082031 -0.644531 12.6875 -0.582031 13.5 -0.5625 L 13.5 0 L 4.484375 0 L 4.484375 -0.5625 C 5.296875 -0.5625 5.894531 -0.613281 6.28125 -0.71875 C 6.664062 -0.832031 6.953125 -1.085938 7.140625 -1.484375 C 7.335938 -1.890625 7.4375 -2.535156 7.4375 -3.421875 L 7.4375 -21.359375 L 4.9375 -21.359375 C 3.550781 -21.359375 2.601562 -21.039062 2.09375 -20.40625 C 1.582031 -19.78125 1.304688 -18.804688 1.265625 -17.484375 L 0.734375 -17.484375 L 0.734375 -22.625 L 17.25 -22.625 Z M 17.25 -17.484375 "/></g></g></g><g fill="#073e16" fill-opacity="1"><g transform="translate(157.854758, 115.493073)"><g/></g></g><g fill="#073e16" fill-opacity="1"><g transform="translate(164.156259, 115.493073)"><g><path d="M 7.265625 -22.984375 C 8.285156 -22.984375 9.207031 -22.726562 10.03125 -22.21875 C 10.863281 -21.71875 11.519531 -21.023438 12 -20.140625 C 12.488281 -19.253906 12.734375 -18.28125 12.734375 -17.21875 C 12.734375 -15.582031 12.054688 -13.601562 10.703125 -11.28125 C 9.359375 -8.957031 6.960938 -6.003906 3.515625 -2.421875 L 10.75 -2.421875 C 11.8125 -2.421875 12.695312 -2.984375 13.40625 -4.109375 L 14.03125 -4.109375 L 12.5 0 L 0.828125 0 L 0.828125 -0.5625 L 4.640625 -4.90625 C 6.078125 -6.5625 7.316406 -8.296875 8.359375 -10.109375 C 9.398438 -11.929688 9.921875 -13.789062 9.921875 -15.6875 C 9.921875 -17.125 9.554688 -18.269531 8.828125 -19.125 C 8.097656 -19.976562 7.132812 -20.40625 5.9375 -20.40625 C 4.988281 -20.40625 4.191406 -20.101562 3.546875 -19.5 C 2.910156 -18.90625 2.476562 -18.046875 2.25 -16.921875 L 1.65625 -16.921875 C 1.90625 -18.753906 2.53125 -20.222656 3.53125 -21.328125 C 4.539062 -22.429688 5.785156 -22.984375 7.265625 -22.984375 Z M 7.265625 -22.984375 "/></g></g></g><g fill="#073e16" fill-opacity="1"><g transform="translate(179.014538, 115.493073)"><g><path d="M 7.5625 -22.984375 C 8.738281 -22.984375 9.800781 -22.457031 10.75 -21.40625 C 11.695312 -20.363281 12.441406 -18.921875 12.984375 -17.078125 C 13.523438 -15.242188 13.796875 -13.1875 13.796875 -10.90625 C 13.796875 -8.519531 13.488281 -6.46875 12.875 -4.75 C 12.269531 -3.039062 11.488281 -1.753906 10.53125 -0.890625 C 9.570312 -0.0351562 8.5625 0.390625 7.5 0.390625 C 6.300781 0.390625 5.207031 -0.117188 4.21875 -1.140625 C 3.238281 -2.171875 2.460938 -3.582031 1.890625 -5.375 C 1.316406 -7.164062 1.03125 -9.15625 1.03125 -11.34375 C 1.03125 -13.925781 1.347656 -16.09375 1.984375 -17.84375 C 2.628906 -19.59375 3.453125 -20.882812 4.453125 -21.71875 C 5.460938 -22.5625 6.5 -22.984375 7.5625 -22.984375 Z M 4.171875 -11.078125 C 4.171875 -8.203125 4.429688 -5.734375 4.953125 -3.671875 C 5.472656 -1.617188 6.34375 -0.59375 7.5625 -0.59375 C 8.644531 -0.59375 9.425781 -1.488281 9.90625 -3.28125 C 10.394531 -5.070312 10.640625 -7.628906 10.640625 -10.953125 C 10.640625 -14.398438 10.394531 -17.101562 9.90625 -19.0625 C 9.425781 -21.019531 8.585938 -22 7.390625 -22 C 6.179688 -22 5.34375 -21 4.875 -19 C 4.40625 -17.007812 4.171875 -14.367188 4.171875 -11.078125 Z M 4.171875 -11.078125 "/></g></g></g><g fill="#073e16" fill-opacity="1"><g transform="translate(193.872817, 115.493073)"><g><path d="M 7.265625 -22.984375 C 8.285156 -22.984375 9.207031 -22.726562 10.03125 -22.21875 C 10.863281 -21.71875 11.519531 -21.023438 12 -20.140625 C 12.488281 -19.253906 12.734375 -18.28125 12.734375 -17.21875 C 12.734375 -15.582031 12.054688 -13.601562 10.703125 -11.28125 C 9.359375 -8.957031 6.960938 -6.003906 3.515625 -2.421875 L 10.75 -2.421875 C 11.8125 -2.421875 12.695312 -2.984375 13.40625 -4.109375 L 14.03125 -4.109375 L 12.5 0 L 0.828125 0 L 0.828125 -0.5625 L 4.640625 -4.90625 C 6.078125 -6.5625 7.316406 -8.296875 8.359375 -10.109375 C 9.398438 -11.929688 9.921875 -13.789062 9.921875 -15.6875 C 9.921875 -17.125 9.554688 -18.269531 8.828125 -19.125 C 8.097656 -19.976562 7.132812 -20.40625 5.9375 -20.40625 C 4.988281 -20.40625 4.191406 -20.101562 3.546875 -19.5 C 2.910156 -18.90625 2.476562 -18.046875 2.25 -16.921875 L 1.65625 -16.921875 C 1.90625 -18.753906 2.53125 -20.222656 3.53125 -21.328125 C 4.539062 -22.429688 5.785156 -22.984375 7.265625 -22.984375 Z M 7.265625 -22.984375 "/></g></g></g><g fill="#073e16" fill-opacity="1"><g transform="translate(208.731096, 115.493073)"><g><path d="M 12.109375 -20.03125 L 6.5 -20.03125 L 5.234375 -16.8125 C 7.609375 -16.457031 9.484375 -15.488281 10.859375 -13.90625 C 12.242188 -12.332031 12.9375 -10.414062 12.9375 -8.15625 C 12.9375 -6.96875 12.65625 -5.703125 12.09375 -4.359375 C 11.53125 -3.023438 10.691406 -1.898438 9.578125 -0.984375 C 8.472656 -0.0664062 7.148438 0.390625 5.609375 0.390625 C 4.585938 0.390625 3.734375 0.179688 3.046875 -0.234375 C 2.367188 -0.648438 2.03125 -1.160156 2.03125 -1.765625 C 2.03125 -2.109375 2.144531 -2.390625 2.375 -2.609375 C 2.601562 -2.835938 2.90625 -2.953125 3.28125 -2.953125 C 3.59375 -2.953125 3.875 -2.882812 4.125 -2.75 C 4.382812 -2.613281 4.703125 -2.40625 5.078125 -2.125 C 5.492188 -1.8125 5.835938 -1.582031 6.109375 -1.4375 C 6.390625 -1.300781 6.707031 -1.234375 7.0625 -1.234375 C 8.1875 -1.234375 9.097656 -1.765625 9.796875 -2.828125 C 10.492188 -3.898438 10.84375 -5.15625 10.84375 -6.59375 C 10.84375 -7.832031 10.519531 -9.019531 9.875 -10.15625 C 9.238281 -11.300781 8.316406 -12.238281 7.109375 -12.96875 C 5.910156 -13.695312 4.503906 -14.082031 2.890625 -14.125 L 6.234375 -22.625 L 13.328125 -22.625 Z M 12.109375 -20.03125 "/></g></g></g></svg>